<?xml version="1.0" standalone="no"?>
<!DOCTYPE svg PUBLIC "-//W3C//DTD SVG 1.1//EN" "http://www.w3.org/Graphics/SVG/1.1/DTD/svg11.dtd" >
<svg xmlns="http://www.w3.org/2000/svg" xmlns:xlink="http://www.w3.org/1999/xlink" version="1.1">
<metadata>
Created by FontForge 20190801 at Mon Nov 23 21:49:48 2015
 By Jimmy Wärting
Tom Anders Watkins
</metadata>
<defs>
<font id="ArgonPERSONAL-Regular" horiz-adv-x="600" >
  <font-face 
    font-family="Argon PERSONAL"
    font-weight="400"
    font-stretch="normal"
    units-per-em="1000"
    panose-1="0 0 5 0 0 0 0 0 0 0"
    ascent="800"
    descent="-200"
    x-height="699"
    cap-height="700"
    bbox="-10 -200 871 800"
    underline-thickness="50"
    underline-position="-75"
    unicode-range="U+0020-2265"
  />
<missing-glyph horiz-adv-x="500" 
d="M410 -200h-317v1000h317v-1000zM168 733v-33h65v-37h-66v-33h166v33h-66v37h66v33h-165zM167 604v-104h166v34h-66v70h-100zM233 534h-33v36h33v-36zM167 473v-33h66v-37h-66v-33h100v70h66v33h-166zM300 413v-66h-133v-34h166v100h-33zM233 291v-56h34v23h33v-47h-100
v80h-33v-113h166v113h-100zM167 118v-113h166v113h-166zM300 38h-100v47h100v-47zM167 -18v-33h70l-70 -47v-33h166v33h-102l70 47h32v33h-166z" />
    <glyph glyph-name=".notdef" horiz-adv-x="500" 
d="M410 -200h-317v1000h317v-1000zM168 733v-33h65v-37h-66v-33h166v33h-66v37h66v33h-165zM167 604v-104h166v34h-66v70h-100zM233 534h-33v36h33v-36zM167 473v-33h66v-37h-66v-33h100v70h66v33h-166zM300 413v-66h-133v-34h166v100h-33zM233 291v-56h34v23h33v-47h-100
v80h-33v-113h166v113h-100zM167 118v-113h166v113h-166zM300 38h-100v47h100v-47zM167 -18v-33h70l-70 -47v-33h166v33h-102l70 47h32v33h-166z" />
    <glyph glyph-name="A" unicode="A" horiz-adv-x="752" 
d="M529 36h106l-278 630h-24l-277 -630h119l32 79h206l15 -34h-199l-34 -80h-195l313 699h64l315 -699l-184 -1l-64 145l-261 1l-35 -84h-44l51 117h310zM308 267h-39l76 183l110 -243h-290l180 404l246 -548h-41l-205 466l-122 -291h177l-55 120z" />
    <glyph glyph-name="B" unicode="B" horiz-adv-x="577" 
d="M487 347c27 -35 40 -78 40 -130c0 -136 -88 -216 -233 -216h-294v695h36v-659h258c127 0 197 63 197 180c0 48 -6 79 -18 94l-19 22l-13 13l11 11l10 16c17 31 25 65 25 104c0 119 -69 182 -193 182h-191v-229h200c33 0 49 16 49 47c0 35 -20 54 -49 54h-131v-70h-36v105
h167c20 0 42 -7 55 -19c20 -19 30 -42 30 -70c0 -53 -32 -83 -85 -83h-235v301h231c141 0 223 -79 223 -218c0 -51 -12 -95 -35 -130zM68 298h235c53 0 88 -32 88 -84c0 -16 -3 -30 -9 -41c-14 -29 -40 -43 -79 -43h-167v102h36v-66h131c35 0 52 16 52 48
c0 31 -17 47 -52 47h-200v-158h215c20 0 38 5 55 15c35 21 52 51 52 92c0 73 -43 119 -110 119h-246v36h246c64 0 106 49 106 118c0 20 -5 39 -14 56c-20 34 -56 55 -89 55h-181v36h181c27 0 52 -6 73 -18c42 -25 67 -73 67 -129c0 -63 -27 -111 -72 -136l26 -19
c33 -29 49 -68 49 -118c0 -40 -15 -75 -44 -104c-31 -27 -64 -40 -99 -40h-250v232z" />
    <glyph glyph-name="C" unicode="C" 
d="M594 95l-14 -9c-89 -61 -155 -86 -234 -86c-62 0 -120 16 -173 47c-107 63 -176 179 -176 302c0 62 16 120 48 175c63 108 174 173 301 173c88 0 172 -33 236 -90l14 -14l-25 -26l-8 8l-6 5c-57 53 -132 82 -211 82c-56 0 -108 -14 -156 -42c-97 -56 -157 -159 -157 -271
c0 -56 14 -108 42 -156c56 -96 159 -156 271 -156c68 0 125 20 198 68l-56 83c-57 -36 -95 -50 -142 -50c-36 0 -70 10 -103 29c-65 39 -107 111 -107 182c0 37 10 72 29 105c39 67 104 105 181 105c44 0 85 -13 122 -38c2 -2 4 -3 7 -4l22 25l-8 7c-47 31 -94 46 -143 46
c-65 0 -127 -25 -174 -73c-47 -47 -72 -108 -72 -173s25 -127 72 -174s109 -73 174 -73c47 0 90 13 131 40l20 -30c-47 -30 -97 -45 -151 -45c-75 0 -146 30 -199 83s-83 124 -83 199s30 144 83 200c55 53 124 82 199 82c61 0 116 -18 163 -54c13 -8 22 -15 27 -20l11 -11
l-67 -79l-15 11c-5 5 -11 10 -18 14c-29 21 -63 32 -101 32c-31 0 -59 -8 -86 -23c-54 -31 -88 -87 -88 -152c0 -30 8 -58 25 -85c32 -54 89 -89 149 -89c43 0 74 12 137 53l16 10z" />
    <glyph glyph-name="D" unicode="D" horiz-adv-x="659" 
d="M521 599c64 -68 98 -156 98 -249s-36 -182 -101 -249c-59 -63 -137 -100 -209 -100h-293v634h285c57 0 117 -30 172 -85c51 -56 79 -128 79 -200c0 -71 -29 -141 -82 -198c-49 -52 -113 -83 -168 -83h-149v18l1 413h35l-1 -395h114c44 0 97 28 141 72
c47 49 73 112 73 173c0 41 -10 82 -30 121c-41 79 -112 127 -185 127l-249 1v-561h257c43 0 88 15 133 46c91 60 142 158 142 266c0 51 -13 102 -38 151c-52 98 -144 161 -237 161l-293 1v36h293c75 0 152 -37 212 -100zM227 173h71c33 0 71 21 102 56s50 81 50 122
c0 31 -7 59 -21 86c-28 53 -86 93 -131 93l-178 -1v-462h-36l-1 497l215 1c32 0 63 -10 92 -29c59 -40 96 -114 96 -185c0 -33 -9 -67 -27 -100c-36 -67 -106 -114 -161 -114h-71v36z" />
    <glyph glyph-name="E" unicode="E" horiz-adv-x="513" 
d="M455 172h-282v60h-36v-96h282v-100h-383v662h-36v-698h455v172zM337 373h-233v289h310v-99h-204v-36h240v171h-382v-361h269v36zM384 103h-280v166h304v172h-235v155h206v36h-242v-227h235v-100h-304v-238h316v36z" />
    <glyph glyph-name="F" unicode="F" horiz-adv-x="503" 
d="M170 250h234v105h-269v-36h233v-33h-234v-250h-98v664h-36v-700h170v250zM102 664h315v-98h-214v-36h250v170h-386v-636h35v600zM404 422h-234v177h216v36h-252v-250h270v37z" />
    <glyph glyph-name="G" unicode="G" horiz-adv-x="660" 
d="M354 0c80 0 144 24 233 85l7 6v285h-254v-36h219v-230c-85 -55 -137 -74 -205 -74c-56 0 -108 14 -156 42c-97 56 -157 159 -157 271c0 56 14 108 42 157c56 97 159 157 271 157c79 0 154 -29 211 -82l14 -14l25 26l-7 8c-3 3 -5 5 -8 6c-64 59 -148 92 -235 92
c-63 0 -121 -15 -174 -45c-105 -61 -175 -180 -175 -305c0 -60 16 -117 48 -172c63 -109 177 -177 301 -177zM354 68c59 0 105 14 150 45l23 18v178h-187v-102h83v-16c-21 -11 -44 -16 -69 -16c-31 0 -60 8 -87 24c-53 31 -87 90 -87 150c0 32 8 61 24 88
c31 53 90 87 150 87c37 0 71 -11 100 -32l32 -25l72 78l-13 13l-26 20c-53 35 -108 53 -165 53c-51 0 -98 -12 -141 -37c-86 -49 -141 -144 -141 -245c0 -50 13 -97 38 -140c51 -87 144 -141 244 -141zM354 595c53 0 101 -16 144 -47l8 -6l-24 -26l-7 5
c-37 25 -78 38 -121 38c-38 0 -73 -9 -105 -28c-65 -37 -105 -106 -105 -182c0 -38 9 -73 28 -104c36 -64 110 -106 182 -106c30 0 62 8 95 24l10 5v75h-83v30h115v-125l-7 -6c-37 -25 -81 -38 -130 -38c-44 0 -85 11 -123 33c-76 44 -123 124 -123 212c0 44 11 85 33 123
c44 76 125 123 213 123z" />
    <glyph glyph-name="H" unicode="H" horiz-adv-x="650" 
d="M182 230h-37v-193h-101v626h101v-194h37v231h-174v-700h174v230zM453 700h-35v-262h-305v196h-36v-231h376v297zM595 700h-105v-300h36v263h34v-663h35v700zM526 367h-450v-35h414v-295h-37v262h-377v-238h37v201h305v-262h108v367z" />
    <glyph glyph-name="I" unicode="I" horiz-adv-x="333" 
d="M253 700h-36v-664h-101v628h33v-597h36v633h-105v-700h173v700z" />
    <glyph glyph-name="J" unicode="J" horiz-adv-x="455" 
d="M198 0c22 0 35 1 40 4c127 24 177 108 177 292v403h-36v-403c0 -164 -42 -236 -147 -256c-12 -2 -23 -3 -34 -3c-52 0 -103 23 -132 59l55 70c29 -24 55 -36 78 -36c54 0 81 48 81 145v388h31v-389c0 -103 -26 -153 -86 -170c-5 -3 -14 -4 -28 -4c-22 0 -44 8 -67 25
c-1 1 -2 2 -3 2l-1 1l-21 -29h1l3 -3c33 -23 59 -33 87 -33c12 0 25 2 39 6c79 24 112 85 112 205v426l-103 -1v-424c0 -73 -15 -109 -45 -109c-19 0 -54 21 -67 40l-15 15l-97 -126l8 -11l17 -17c27 -28 29 -29 70 -49c25 -12 52 -18 83 -18z" />
    <glyph glyph-name="K" unicode="K" horiz-adv-x="660" 
d="M428 633h46l-274 -347v-286l-175 -1v701h36v-665h102v264zM129 425l-36 -46v321h106v-186l-37 -46v195h-33v-238zM435 61l-180 243l282 359h-130l-278 -356v-246h-36v258l297 381h221l-310 -396l179 -243h-45zM612 0h-217l-161 217v60l179 -242h127l-196 265l23 29z" />
    <glyph glyph-name="L" unicode="L" horiz-adv-x="461" 
d="M401 168h-199v-36h163v-96h-329v629h30v-599h37v635h-103v-701h401v168zM333 103h-161v598h-36v-635h197v37z" />
    <glyph glyph-name="M" unicode="M" horiz-adv-x="835" 
d="M571 492l75 -492h-36l-58 380l-121 -224l-290 545h41l249 -468zM785 0h-106l-3 15h1l-80 524l28 53l9 -60l76 -495h33l-17 115l-75 488l-3 24h-24l-33 -61l-3 -7l-88 -164l-66 -125l-21 38l47 87l142 269h77zM533 269l8 -53l-109 -207l-306 576l-84 -548h102l34 224
l8 -15l21 -39l-32 -207h-175l106 698l6 -10l287 -541l33 -61l100 190zM143 481l256 -481h-41l-196 369l-48 -306h-36z" />
    <glyph glyph-name="N" unicode="N" horiz-adv-x="663" 
d="M544 197l-495 503h50l409 -415v345h36v-433zM613 700v-700h-64l-415 416v-380h32v297l37 -38v-295h-105v504l458 -464l4 -4h17v629h-102v-300l-36 39v296h174zM544 152v-53l-479 486v-585h-35v671z" />
    <glyph glyph-name="O" unicode="O" horiz-adv-x="703" 
d="M352 0c62 0 120 16 175 48c108 63 176 183 176 303c0 61 -16 119 -47 174c-63 109 -181 177 -304 177c-61 0 -119 -16 -174 -47c-110 -64 -178 -180 -178 -304c0 -62 16 -120 48 -174c64 -109 183 -177 304 -177zM352 667c56 0 109 -14 158 -42c99 -56 158 -159 158 -274
c0 -57 -14 -110 -42 -158c-56 -97 -159 -157 -274 -157c-57 0 -110 14 -158 42c-97 56 -157 158 -157 273c0 57 14 110 42 159c56 97 158 157 273 157zM352 68c51 0 98 13 143 39c88 51 139 143 139 244c0 54 -12 103 -35 146c-48 86 -138 136 -247 136
c-53 0 -102 -12 -145 -37c-87 -49 -141 -145 -141 -245c0 -51 13 -98 39 -141c51 -88 148 -142 247 -142zM352 598c44 0 85 -11 124 -32c76 -44 123 -124 123 -215c0 -44 -11 -85 -33 -123c-45 -77 -123 -125 -214 -125c-45 0 -87 11 -124 34c-76 44 -124 125 -124 214
c0 45 11 87 33 125c44 75 126 122 215 122zM352 133c39 0 76 10 109 30c67 39 105 108 105 188c0 41 -9 77 -28 110c-37 65 -109 107 -186 107c-41 0 -77 -9 -110 -28c-66 -37 -109 -110 -109 -189c0 -38 10 -74 30 -108c40 -69 110 -110 189 -110zM352 532
c32 0 62 -8 90 -24c55 -32 89 -92 89 -157c0 -32 -8 -62 -23 -89c-32 -56 -89 -90 -156 -90c-34 0 -65 8 -92 24c-56 32 -90 91 -90 155c0 32 8 62 25 90c33 56 93 91 157 91z" />
    <glyph glyph-name="P" unicode="P" horiz-adv-x="536" 
d="M188 241h86c140 0 221 85 221 233c0 143 -89 227 -234 227h-177v-323h162c71 0 106 32 106 96c0 55 -31 87 -86 87h-113v-117l37 1v81h76c35 0 52 -17 52 -52c0 -43 -20 -59 -72 -59h-128v249h143c129 0 199 -66 199 -190c0 -77 -25 -136 -73 -165
c-31 -21 -68 -31 -113 -31h-123v-241h-99v664h-37v-701h173v241zM118 310h134c116 0 174 55 174 159c0 34 -6 63 -18 87c-24 48 -73 74 -130 74h-125v-36h125c69 0 112 -46 112 -125c0 -84 -45 -124 -138 -124h-168v-285h34v250z" />
    <glyph glyph-name="Q" unicode="Q" horiz-adv-x="761" 
d="M536 52l153 -249h-206l-168 266c-68 9 -130 41 -173 89c-48 52 -75 120 -75 191c0 51 13 99 38 142c51 86 143 141 246 141c50 0 97 -13 142 -39c89 -52 140 -140 140 -244c0 -105 -57 -201 -150 -250l-15 -7l-58 92l19 8c60 31 98 90 98 158c0 32 -8 62 -23 89
c-32 55 -90 87 -154 87c-32 0 -61 -8 -88 -23c-54 -31 -88 -88 -88 -153c0 -31 8 -61 24 -88c31 -55 89 -89 152 -89h11l11 2l194 -306h-42l-171 268c-38 0 -74 10 -107 29c-67 39 -108 111 -108 184c0 37 10 73 29 106c39 66 111 107 183 107c39 0 75 -9 108 -28
c65 -37 105 -106 105 -185c0 -73 -38 -141 -101 -180l19 -31c73 45 115 123 115 210c0 44 -11 85 -32 124c-44 77 -124 124 -213 124c-45 0 -86 -11 -124 -33c-76 -44 -123 -124 -123 -215c0 -41 10 -80 30 -116c40 -72 118 -124 194 -129l9 -1l166 -264h121l-18 30
l-120 194l46 30c83 59 132 155 132 256c0 57 -14 110 -42 159c-56 96 -160 156 -271 156c-55 0 -108 -14 -157 -42c-99 -56 -158 -158 -158 -273c0 -79 30 -155 83 -212c45 -49 105 -83 172 -95l24 -42c-85 9 -165 49 -224 112c-59 67 -91 149 -91 237c0 62 16 120 48 175
c63 109 176 176 303 176c61 0 119 -16 174 -47c108 -63 176 -181 176 -304c0 -113 -56 -221 -149 -286l-1 -1z" />
    <glyph glyph-name="R" unicode="R" horiz-adv-x="623" 
d="M583 0h-197l-137 257h-35v-257h-174v700h36v-664h101v256l93 1l138 -257h115l-111 209l33 13zM108 61v639h177c115 0 197 -38 237 -109c17 -33 26 -70 26 -111c0 -123 -64 -196 -184 -217l109 -203h-41l-125 231l27 3c113 12 178 78 178 186c0 119 -82 184 -227 184h-141
v-603h-36zM177 359h100c113 0 166 37 166 116c0 76 -52 119 -141 119h-89v-34h78c52 0 86 -12 103 -37c9 -11 13 -25 13 -43c0 -57 -47 -88 -136 -88h-95v98h37v-62h58c67 0 100 17 100 52c0 30 -27 45 -80 45h-115v105h126c109 0 177 -56 177 -155
c0 -104 -65 -151 -202 -151h-100v35z" />
    <glyph glyph-name="S" unicode="S" horiz-adv-x="539" 
d="M50 99l28 -15c63 -29 129 -48 178 -48c3 0 23 3 60 8c50 15 86 46 109 91l2 4c11 21 16 46 16 75c0 24 -5 46 -15 66c-16 33 -44 61 -83 83c-27 13 -43 20 -48 22l-25 8l-13 4c-54 16 -88 38 -101 65c-3 5 -5 13 -5 24c0 15 2 27 7 36l1 2c11 21 27 34 49 40
c5 3 16 4 35 4c38 0 90 -16 155 -48l16 25c-63 35 -121 53 -174 53l-40 -5c-30 -9 -53 -28 -69 -57c-7 -13 -10 -28 -10 -47c0 -15 3 -28 9 -40c16 -35 55 -61 118 -80l13 -4c33 -11 59 -22 80 -33c40 -21 70 -58 70 -117c0 -30 -7 -56 -20 -79c-27 -46 -77 -70 -136 -70
c-52 0 -106 14 -163 43l1 2l17 29c63 -25 111 -38 144 -38c50 0 86 19 107 56c9 17 14 36 14 56c0 36 -16 63 -48 82c-19 11 -35 19 -49 24l-27 10l-13 4c-73 22 -120 55 -141 100c-8 17 -12 35 -12 54c0 25 4 45 13 62c20 39 51 65 92 77c9 5 26 7 53 7
c61 0 144 -28 205 -68l16 -9l-54 -86l-15 9c-48 31 -110 53 -153 53c-16 0 -27 -1 -33 -4c-12 -5 -22 -20 -22 -41l2 -11c3 -5 11 -12 22 -21c10 -8 29 -16 56 -25l14 -4c88 -28 146 -69 173 -123c15 -38 23 -68 23 -91c0 -27 -6 -56 -18 -87l-4 -7
c-29 -57 -73 -93 -132 -110c-21 -6 -44 -9 -69 -9c-76 0 -170 30 -241 78l-15 9l88 142l15 -9c48 -31 110 -53 153 -53c27 0 44 8 51 24c3 5 4 11 4 20c0 5 -1 9 -3 12l-1 2c-9 16 -33 30 -74 43l-12 4c-90 27 -150 71 -181 133c-12 24 -18 51 -18 82c0 29 6 58 18 87l3 7
c29 57 73 93 132 109c16 7 39 10 70 10c73 0 157 -29 254 -88l-19 -31c-89 55 -168 83 -236 83c-3 0 -23 -3 -60 -8c-50 -15 -86 -46 -109 -91l-2 -4c-10 -25 -15 -49 -15 -74c0 -24 5 -46 15 -66c25 -53 77 -91 158 -115l3 -1l10 -3c53 -17 82 -35 95 -62l2 -4
c4 -10 6 -18 6 -25c0 -14 -2 -25 -7 -34l-1 -2c-10 -20 -26 -33 -49 -39c-5 -3 -16 -4 -34 -4c-36 0 -79 11 -128 33l-28 15z" />
    <glyph glyph-name="T" unicode="T" horiz-adv-x="580" 
d="M278 534h239v167h-497v-103h427v36h-391v31h425v-95h-239v-504h36v468zM347 503h-36v-466h-100v533h-191v-36h155v-534h172v503z" />
    <glyph glyph-name="U" unicode="U" horiz-adv-x="696" 
d="M363 0c95 0 166 25 214 75c48 49 74 119 74 203v421h-36v-421c0 -73 -22 -135 -63 -178s-101 -64 -189 -64c-169 0 -257 83 -257 242v385h99v-385c0 -93 53 -144 153 -144c99 0 158 56 158 144v385h31v-385c0 -113 -63 -175 -186 -175s-188 62 -188 175v357h-36v-357
c0 -47 9 -86 27 -118c35 -65 93 -93 197 -93c88 0 145 23 181 72c27 36 41 86 41 139v421h-103v-421c0 -69 -43 -108 -122 -108c-81 0 -118 32 -118 108v421h-170v-421c0 -84 25 -155 73 -203c49 -50 122 -75 220 -75z" />
    <glyph glyph-name="V" unicode="V" horiz-adv-x="819" 
d="M769 700l-340 -700h-41l322 663h-35l-321 -663h-17l-337 700h195l172 -356l-21 -43l-174 362h-113l287 -593l306 630h117zM347 224l229 476h42l-271 -561l-238 492h41z" />
    <glyph glyph-name="W" unicode="W" horiz-adv-x="941" 
d="M392 373l19 -45l-26 -65l-19 -46l-91 -217h-69l-216 700h107l151 -492l19 -58l-19 -47h-6l-16 54l-156 508h-31l40 -134l146 -469l8 -27h18l95 228l19 46zM394 544l237 -545h-39l-198 454l-110 -263l-155 510h38l121 -400zM871 700l-211 -692l-9 20l-224 519l-32 73
l-103 -238l-16 53l106 246h26l246 -568l58 189l102 334l9 29h-102l-84 -274l-21 50l78 259h177zM649 201l-208 480h39l142 -327l21 -50l102 334h38z" />
    <glyph glyph-name="X" unicode="X" horiz-adv-x="700" 
d="M488 700l-202 -317l-207 317h124l104 -162l-21 -34l-103 160h-38l141 -215l38 59l1 2l120 190h43zM384 291l149 -232h-43l-148 232l237 372h-36l-424 -663l-119 -1l225 355l-220 345h43l220 -344l-202 -319h34l424 663h121zM650 0h-200l-127 195l-126 -195h-43l168 261
l148 -225h114l-163 252l22 34l3 -5z" />
    <glyph glyph-name="Y" unicode="Y" horiz-adv-x="720" 
d="M675 700l-250 -358v-342h-176v342l-249 358h44l243 -347l-1 -317h103v317l217 311h-39l-213 -309l1 -291h-36v303l230 333h126zM282 417l-199 283h126l115 -162l-22 -32l-112 158h-39l148 -209l167 245h44l-211 -309z" />
    <glyph glyph-name="Z" unicode="Z" horiz-adv-x="610" 
d="M483 700l-329 -632h-43l313 596h-375v36h434zM248 104h188v-36h-248l331 632h41zM506 170v-170h-506l313 599h-228v-32h176l-18 -36h-194v104h324l-314 -599h411v98h-169l19 36h186z" />
    <glyph glyph-name="a" unicode="a" horiz-adv-x="752" 
d="M529 36h106l-278 630h-24l-277 -630h119l32 79h206l15 -34h-199l-34 -80h-195l313 699h64l315 -699l-184 -1l-64 145l-261 1l-35 -84h-44l51 117h310zM308 267h-39l76 183l110 -243h-290l180 404l246 -548h-41l-205 466l-122 -291h179l-57 120z" />
    <glyph glyph-name="b" unicode="b" horiz-adv-x="577" 
d="M487 347c27 -35 40 -78 40 -130c0 -136 -88 -216 -233 -216h-294v695h36v-659h258c127 0 197 63 197 180c0 48 -6 79 -18 94l-19 22l-13 13l11 11l10 16c17 31 25 65 25 104c0 119 -69 182 -193 182h-191v-229h200c33 0 49 16 49 47c0 35 -20 54 -49 54h-131v-70h-36v105
h167c20 0 42 -7 55 -19c20 -19 30 -42 30 -70c0 -53 -32 -83 -85 -83h-235v301h231c141 0 223 -79 223 -218c0 -51 -12 -95 -35 -130zM68 298h235c53 0 88 -32 88 -84c0 -16 -3 -30 -9 -41c-14 -29 -40 -43 -79 -43h-167v102h36v-66h131c35 0 52 16 52 48
c0 31 -17 47 -52 47h-200v-158h215c20 0 38 5 55 15c35 21 52 51 52 92c0 73 -43 119 -110 119h-246v36h246c64 0 106 49 106 118c0 20 -5 39 -14 56c-20 34 -56 55 -89 55h-181v36h181c27 0 52 -6 73 -18c42 -25 67 -73 67 -129c0 -63 -27 -111 -72 -136l26 -19
c33 -29 49 -68 49 -118c0 -40 -15 -75 -44 -104c-31 -27 -64 -40 -99 -40h-250v232z" />
    <glyph glyph-name="c" unicode="c" 
d="M594 95l-14 -9c-89 -61 -155 -86 -234 -86c-62 0 -120 16 -173 47c-107 63 -176 179 -176 302c0 62 16 120 48 175c63 108 174 173 301 173c88 0 172 -33 236 -90l14 -14l-25 -26l-8 8l-6 5c-57 53 -132 82 -211 82c-56 0 -108 -14 -156 -42c-97 -56 -157 -159 -157 -271
c0 -56 14 -108 42 -156c56 -96 159 -156 271 -156c68 0 125 20 198 68l-56 83c-57 -36 -95 -50 -142 -50c-36 0 -70 10 -103 29c-65 39 -107 111 -107 182c0 37 10 72 29 105c39 67 104 105 181 105c44 0 85 -13 122 -38c2 -2 4 -3 7 -4l22 25l-8 7c-47 31 -94 46 -143 46
c-65 0 -127 -25 -174 -73c-47 -47 -72 -108 -72 -173s25 -127 72 -174s109 -73 174 -73c47 0 90 13 131 40l20 -30c-47 -30 -97 -45 -151 -45c-75 0 -146 30 -199 83s-83 124 -83 199s30 144 83 200c55 53 124 82 199 82c61 0 116 -18 163 -54c13 -8 22 -15 27 -20l11 -11
l-67 -79l-15 11c-5 5 -11 10 -18 14c-29 21 -63 32 -101 32c-31 0 -59 -8 -86 -23c-54 -31 -88 -87 -88 -152c0 -30 8 -58 25 -85c32 -54 89 -89 149 -89c43 0 74 12 137 53l16 10z" />
    <glyph glyph-name="d" unicode="d" horiz-adv-x="639" 
d="M521 599c64 -68 98 -156 98 -249s-36 -182 -101 -249c-59 -63 -137 -100 -209 -100h-293v634h285c57 0 117 -30 172 -85c51 -56 79 -128 79 -200c0 -71 -29 -141 -82 -198c-49 -52 -113 -83 -168 -83h-149v18l1 413h35l-1 -395h114c44 0 97 28 141 72
c47 49 73 112 73 173c0 41 -10 82 -30 121c-41 79 -112 127 -185 127l-249 1v-561h257c43 0 88 15 133 46c91 60 142 158 142 266c0 51 -13 102 -38 151c-52 98 -144 161 -237 161l-293 1v36h293c75 0 152 -37 212 -100zM227 173h71c33 0 71 21 102 56s50 81 50 122
c0 31 -7 59 -21 86c-28 53 -86 93 -131 93l-178 -1v-462h-36l-1 497l215 1c32 0 63 -10 92 -29c59 -40 96 -114 96 -185c0 -33 -9 -67 -27 -100c-36 -67 -106 -114 -161 -114h-71v36z" />
    <glyph glyph-name="e" unicode="e" horiz-adv-x="513" 
d="M455 172h-282v60h-36v-96h282v-100h-383v662h-36v-698h455v172zM337 373h-233v289h310v-99h-204v-36h240v171h-382v-361h269v36zM384 103h-280v166h304v172h-235v155h206v36h-242v-227h235v-100h-304v-238h316v36z" />
    <glyph glyph-name="f" unicode="f" horiz-adv-x="503" 
d="M170 250h234v105h-269v-36h233v-33h-234v-250h-98v664h-36v-700h170v250zM102 664h315v-98h-214v-36h250v170h-386v-636h35v600zM404 422h-234v177h216v36h-252v-250h270v37z" />
    <glyph glyph-name="g" unicode="g" horiz-adv-x="660" 
d="M354 0c80 0 144 24 233 85l7 6v285h-254v-36h219v-230c-85 -55 -137 -74 -205 -74c-56 0 -108 14 -156 42c-97 56 -157 159 -157 271c0 56 14 108 42 157c56 97 159 157 271 157c79 0 154 -29 211 -82l14 -14l25 26l-7 8c-3 3 -5 5 -8 6c-64 59 -148 92 -235 92
c-63 0 -121 -15 -174 -45c-105 -61 -175 -180 -175 -305c0 -60 16 -117 48 -172c63 -109 177 -177 301 -177zM354 68c59 0 105 14 150 45l23 18v178h-187v-102h83v-16c-21 -11 -44 -16 -69 -16c-31 0 -60 8 -87 24c-53 31 -87 90 -87 150c0 32 8 61 24 88
c31 53 90 87 150 87c37 0 71 -11 100 -32l32 -25l72 78l-13 13l-26 20c-53 35 -108 53 -165 53c-51 0 -98 -12 -141 -37c-86 -49 -141 -144 -141 -245c0 -50 13 -97 38 -140c51 -87 144 -141 244 -141zM354 595c53 0 101 -16 144 -47l8 -6l-24 -26l-7 5
c-37 25 -78 38 -121 38c-38 0 -73 -9 -105 -28c-65 -37 -105 -106 -105 -182c0 -38 9 -73 28 -104c36 -64 110 -106 182 -106c30 0 62 8 95 24l10 5v75h-83v30h115v-125l-7 -6c-37 -25 -81 -38 -130 -38c-44 0 -85 11 -123 33c-76 44 -123 124 -123 212c0 44 11 85 33 123
c44 76 125 123 213 123z" />
    <glyph glyph-name="h" unicode="h" horiz-adv-x="650" 
d="M182 230h-37v-193h-101v626h101v-194h37v231h-174v-700h174v230zM453 700h-35v-262h-305v196h-36v-231h376v297zM595 700h-105v-300h36v263h34v-663h35v700zM526 367h-450v-35h414v-295h-37v262h-377v-238h37v201h305v-262h108v367z" />
    <glyph glyph-name="i" unicode="i" horiz-adv-x="333" 
d="M253 700h-36v-664h-101v628h33v-597h36v633h-105v-700h173v700z" />
    <glyph glyph-name="j" unicode="j" horiz-adv-x="455" 
d="M198 0c22 0 35 1 40 4c127 24 177 108 177 292v403h-36v-403c0 -164 -42 -236 -147 -256c-12 -2 -23 -3 -34 -3c-52 0 -103 23 -132 59l55 70c29 -24 55 -36 78 -36c54 0 81 48 81 145v388h31v-389c0 -103 -26 -153 -86 -170c-5 -3 -14 -4 -28 -4c-22 0 -44 8 -67 25
c-1 1 -2 2 -3 2l-1 1l-21 -29h1l3 -3c33 -23 59 -33 87 -33c12 0 25 2 39 6c79 24 112 85 112 205v426l-103 -1v-424c0 -73 -15 -109 -45 -109c-19 0 -54 21 -67 40l-15 15l-97 -126l8 -11l17 -17c27 -28 29 -29 70 -49c25 -12 52 -18 83 -18z" />
    <glyph glyph-name="k" unicode="k" horiz-adv-x="660" 
d="M428 633h46l-274 -347v-286l-175 -1v701h36v-665h102v264zM129 425l-36 -46v321h106v-186l-37 -46v195h-33v-238zM435 61l-180 243l282 359h-130l-278 -356v-246h-36v258l297 381h221l-310 -396l179 -243h-45zM612 0h-217l-161 217v60l179 -242h127l-196 265l23 29z" />
    <glyph glyph-name="l" unicode="l" horiz-adv-x="461" 
d="M401 168h-199v-36h163v-96h-329v629h30v-599h37v635h-103v-701h401v168zM333 103h-161v598h-36v-635h197v37z" />
    <glyph glyph-name="m" unicode="m" horiz-adv-x="835" 
d="M571 492l75 -492h-36l-58 380l-121 -224l-290 545h41l249 -468zM785 0h-106l-3 15h1l-80 524l28 53l9 -60l76 -495h33l-17 115l-75 488l-3 24h-24l-33 -61l-3 -7l-88 -164l-66 -125l-21 38l47 87l142 269h77zM533 269l8 -53l-109 -207l-306 576l-84 -548h102l34 224
l8 -15l21 -39l-32 -207h-175l106 698l6 -10l287 -541l33 -61l100 190zM143 481l256 -481h-41l-196 369l-48 -306h-36z" />
    <glyph glyph-name="n" unicode="n" horiz-adv-x="663" 
d="M544 197l-495 503h50l409 -415v345h36v-433zM613 700v-700h-64l-415 416v-380h32v297l37 -38v-295h-105v504l458 -464l4 -4h17v629h-102v-300l-36 39v296h174zM544 152v-53l-479 486v-585h-35v671z" />
    <glyph glyph-name="o" unicode="o" horiz-adv-x="703" 
d="M352 0c62 0 120 16 175 48c108 63 176 183 176 303c0 61 -16 119 -47 174c-63 109 -181 177 -304 177c-61 0 -119 -16 -174 -47c-110 -64 -178 -180 -178 -304c0 -62 16 -120 48 -174c64 -109 183 -177 304 -177zM352 667c56 0 109 -14 158 -42c99 -56 158 -159 158 -274
c0 -57 -14 -110 -42 -158c-56 -97 -159 -157 -274 -157c-57 0 -110 14 -158 42c-97 56 -157 158 -157 273c0 57 14 110 42 159c56 97 158 157 273 157zM352 68c51 0 98 13 143 39c88 51 139 143 139 244c0 54 -12 103 -35 146c-48 86 -138 136 -247 136
c-53 0 -102 -12 -145 -37c-87 -49 -141 -145 -141 -245c0 -51 13 -98 39 -141c51 -88 148 -142 247 -142zM352 598c44 0 85 -11 124 -32c76 -44 123 -124 123 -215c0 -44 -11 -85 -33 -123c-45 -77 -123 -125 -214 -125c-45 0 -87 11 -124 34c-76 44 -124 125 -124 214
c0 45 11 87 33 125c44 75 126 122 215 122zM352 133c39 0 76 10 109 30c67 39 105 108 105 188c0 41 -9 77 -28 110c-37 65 -109 107 -186 107c-41 0 -77 -9 -110 -28c-66 -37 -109 -110 -109 -189c0 -38 10 -74 30 -108c40 -69 110 -110 189 -110zM352 532
c32 0 62 -8 90 -24c55 -32 89 -92 89 -157c0 -32 -8 -62 -23 -89c-32 -56 -89 -90 -156 -90c-34 0 -65 8 -92 24c-56 32 -90 91 -90 155c0 32 8 62 25 90c33 56 93 91 157 91z" />
    <glyph glyph-name="p" unicode="p" horiz-adv-x="536" 
d="M188 241h86c140 0 221 85 221 233c0 143 -89 227 -234 227h-177v-323h162c71 0 106 32 106 96c0 55 -31 87 -86 87h-113v-117l37 1v81h76c35 0 52 -17 52 -52c0 -43 -20 -59 -72 -59h-128v249h143c129 0 199 -66 199 -190c0 -77 -25 -136 -73 -165
c-31 -21 -68 -31 -113 -31h-123v-241h-99v664h-37v-701h173v241zM118 310h134c116 0 174 55 174 159c0 34 -6 63 -18 87c-24 48 -73 74 -130 74h-125v-36h125c69 0 112 -46 112 -125c0 -84 -45 -124 -138 -124h-168v-285h34v250z" />
    <glyph glyph-name="q" unicode="q" horiz-adv-x="761" 
d="M536 52l153 -249h-206l-168 266c-68 9 -130 41 -173 89c-48 52 -75 120 -75 191c0 51 13 99 38 142c51 86 143 141 246 141c50 0 97 -13 142 -39c89 -52 140 -140 140 -244c0 -105 -57 -201 -150 -250l-15 -7l-58 92l19 8c60 31 98 90 98 158c0 32 -8 62 -23 89
c-32 55 -90 87 -154 87c-32 0 -61 -8 -88 -23c-54 -31 -88 -88 -88 -153c0 -31 8 -61 24 -88c31 -55 89 -89 152 -89h11l11 2l194 -306h-42l-171 268c-38 0 -74 10 -107 29c-67 39 -108 111 -108 184c0 37 10 73 29 106c39 66 111 107 183 107c39 0 75 -9 108 -28
c65 -37 105 -106 105 -185c0 -73 -38 -141 -101 -180l19 -31c73 45 115 123 115 210c0 44 -11 85 -32 124c-44 77 -124 124 -213 124c-45 0 -86 -11 -124 -33c-76 -44 -123 -124 -123 -215c0 -41 10 -80 30 -116c40 -72 118 -124 194 -129l9 -1l166 -264h121l-18 30
l-120 194l46 30c83 59 132 155 132 256c0 57 -14 110 -42 159c-56 96 -160 156 -271 156c-55 0 -108 -14 -157 -42c-99 -56 -158 -158 -158 -273c0 -79 30 -155 83 -212c45 -49 105 -83 172 -95l24 -42c-85 9 -165 49 -224 112c-59 67 -91 149 -91 237c0 62 16 120 48 175
c63 109 176 176 303 176c61 0 119 -16 174 -47c108 -63 176 -181 176 -304c0 -113 -56 -221 -149 -286l-1 -1z" />
    <glyph glyph-name="r" unicode="r" horiz-adv-x="623" 
d="M583 0h-197l-137 257h-35v-257h-174v700h36v-664h101v256l93 1l138 -257h115l-111 209l33 13zM108 61v639h177c115 0 197 -38 237 -109c17 -33 26 -70 26 -111c0 -123 -64 -196 -184 -217l109 -203h-41l-125 231l27 3c113 12 178 78 178 186c0 119 -82 184 -227 184h-141
v-603h-36zM177 359h100c113 0 166 37 166 116c0 76 -52 119 -141 119h-89v-34h78c52 0 86 -12 103 -37c9 -11 13 -25 13 -43c0 -57 -47 -88 -136 -88h-95v98h37v-62h58c67 0 100 17 100 52c0 30 -27 45 -80 45h-115v105h126c109 0 177 -56 177 -155
c0 -104 -65 -151 -202 -151h-100v35z" />
    <glyph glyph-name="s" unicode="s" horiz-adv-x="539" 
d="M50 99l28 -15c63 -29 129 -48 178 -48c3 0 23 3 60 8c50 15 86 46 109 91l2 4c11 21 16 46 16 75c0 24 -5 46 -15 66c-16 33 -44 61 -83 83c-27 13 -43 20 -48 22l-25 8l-13 4c-54 16 -88 38 -101 65c-3 5 -5 13 -5 24c0 15 2 27 7 36l1 2c11 21 27 34 49 40
c5 3 16 4 35 4c38 0 90 -16 155 -48l16 25c-63 35 -121 53 -174 53l-40 -5c-30 -9 -53 -28 -69 -57c-7 -13 -10 -28 -10 -47c0 -15 3 -28 9 -40c16 -35 55 -61 118 -80l13 -4c33 -11 59 -22 80 -33c40 -21 70 -58 70 -117c0 -30 -7 -56 -20 -79c-27 -46 -77 -70 -136 -70
c-52 0 -106 14 -163 43l1 2l17 29c63 -25 111 -38 144 -38c50 0 86 19 107 56c9 17 14 36 14 56c0 36 -16 63 -48 82c-19 11 -35 19 -49 24l-27 10l-13 4c-73 22 -120 55 -141 100c-8 17 -12 35 -12 54c0 25 4 45 13 62c20 39 51 65 92 77c9 5 26 7 53 7
c61 0 144 -28 205 -68l16 -9l-54 -86l-15 9c-48 31 -110 53 -153 53c-16 0 -27 -1 -33 -4c-12 -5 -22 -20 -22 -41l2 -11c3 -5 11 -12 22 -21c10 -8 29 -16 56 -25l14 -4c88 -28 146 -69 173 -123c15 -38 23 -68 23 -91c0 -27 -6 -56 -18 -87l-4 -7
c-29 -57 -73 -93 -132 -110c-21 -6 -44 -9 -69 -9c-76 0 -170 30 -241 78l-15 9l88 142l15 -9c48 -31 110 -53 153 -53c27 0 44 8 51 24c3 5 4 11 4 20c0 5 -1 9 -3 12l-1 2c-9 16 -33 30 -74 43l-12 4c-90 27 -150 71 -181 133c-12 24 -18 51 -18 82c0 29 6 58 18 87l3 7
c29 57 73 93 132 109c16 7 39 10 70 10c73 0 157 -29 254 -88l-19 -31c-89 55 -168 83 -236 83c-3 0 -23 -3 -60 -8c-50 -15 -86 -46 -109 -91l-2 -4c-10 -25 -15 -49 -15 -74c0 -24 5 -46 15 -66c25 -53 77 -91 158 -115l3 -1l10 -3c53 -17 82 -35 95 -62l2 -4
c4 -10 6 -18 6 -25c0 -14 -2 -25 -7 -34l-1 -2c-10 -20 -26 -33 -49 -39c-5 -3 -16 -4 -34 -4c-36 0 -79 11 -128 33l-28 15z" />
    <glyph glyph-name="t" unicode="t" horiz-adv-x="580" 
d="M278 534h239v167h-497v-103h427v36h-391v31h425v-95h-239v-504h36v468zM347 503h-36v-466h-100v533h-191v-36h155v-534h172v503z" />
    <glyph glyph-name="u" unicode="u" horiz-adv-x="696" 
d="M363 0c95 0 166 25 214 75c48 49 74 119 74 203v421h-36v-421c0 -73 -22 -135 -63 -178s-101 -64 -189 -64c-169 0 -257 83 -257 242v385h99v-385c0 -93 53 -144 153 -144c99 0 158 56 158 144v385h31v-385c0 -113 -63 -175 -186 -175s-188 62 -188 175v357h-36v-357
c0 -47 9 -86 27 -118c35 -65 93 -93 197 -93c88 0 145 23 181 72c27 36 41 86 41 139v421h-103v-421c0 -69 -43 -108 -122 -108c-81 0 -118 32 -118 108v421h-170v-421c0 -84 25 -155 73 -203c49 -50 122 -75 220 -75z" />
    <glyph glyph-name="v" unicode="v" horiz-adv-x="819" 
d="M769 700l-340 -700h-41l322 663h-35l-321 -663h-17l-337 700h195l172 -356l-21 -43l-174 362h-113l287 -593l306 630h117zM347 224l229 476h42l-271 -561l-238 492h41z" />
    <glyph glyph-name="w" unicode="w" horiz-adv-x="941" 
d="M392 373l19 -45l-26 -65l-19 -46l-91 -217h-69l-216 700h107l151 -492l19 -58l-19 -47h-6l-16 54l-156 508h-31l40 -134l146 -469l8 -27h18l95 228l19 46zM394 544l237 -545h-39l-198 454l-110 -263l-155 510h38l121 -400zM871 700l-211 -692l-9 20l-224 519l-32 73
l-103 -238l-16 53l106 246h26l246 -568l58 189l102 334l9 29h-102l-84 -274l-21 50l78 259h177zM649 201l-208 480h39l142 -327l21 -50l102 334h38z" />
    <glyph glyph-name="x" unicode="x" horiz-adv-x="700" 
d="M488 700l-202 -317l-207 317h124l104 -162l-21 -34l-103 160h-38l141 -215l38 59l1 2l120 190h43zM384 291l149 -232h-43l-148 232l237 372h-36l-424 -663l-119 -1l225 355l-220 345h43l220 -344l-202 -319h34l424 663h121zM650 0h-200l-127 195l-126 -195h-43l168 261
l148 -225h114l-163 252l22 34l3 -5z" />
    <glyph glyph-name="y" unicode="y" horiz-adv-x="720" 
d="M675 700l-250 -358v-342h-176v342l-249 358h44l243 -347l-1 -317h103v317l217 311h-39l-213 -309l1 -291h-36v303l230 333h126zM282 417l-199 283h126l115 -162l-22 -32l-112 158h-39l148 -209l167 245h44l-211 -309z" />
    <glyph glyph-name="z" unicode="z" horiz-adv-x="610" 
d="M483 700l-329 -632h-43l313 596h-375v36h434zM248 104h188v-36h-248l331 632h41zM506 170v-170h-506l313 599h-228v-32h176l-18 -36h-194v104h324l-314 -599h411v98h-169l19 36h186z" />
    <glyph glyph-name="zero" unicode="0" 
d="M208 490v-20h27v-12h-27v-39h-13v83h42v-12h-29zM264 502v-50c0 -15 6 -23 18 -23s18 8 18 23v50h13v-54c0 -17 -14 -31 -31 -31c-19 0 -31 14 -31 31v54h13zM345 430h25v-11h-37v83h12v-72zM394 430h25v-11h-37v83h12v-72zM466 375l60 -63v57h13v-88l-61 64v-59h-12v89z
M307 351l-5 7c-1 1 -3 1 -7 1c-8 0 -13 -6 -13 -10s3 -7 10 -10l8 -3c13 -5 19 -13 19 -25c0 -16 -10 -26 -26 -26c-15 0 -24 8 -27 24l13 3c0 -10 5 -15 14 -15c8 0 14 8 14 13l-1 5l-2 4l-4 3l-5 3l-8 3c-11 5 -17 12 -17 21c0 12 12 22 25 22c9 0 17 -5 22 -14zM363 328
c0 24 19 43 44 43c24 0 43 -19 43 -43s-20 -43 -44 -43c-25 0 -43 16 -43 43zM94 312l23 57h14l-37 -89l-37 89h14zM154 358v-20h32v-12h-32v-28h33v-12h-46v83h46v-11h-33zM242 286l-24 34h-2v-34h-12v83h14c23 0 32 -7 32 -24c0 -12 -6 -20 -18 -23l26 -36h-16zM347 286
h-13v83h13v-83zM376 328c0 -19 14 -31 30 -31c17 0 31 14 31 31s-14 31 -31 31c-16 0 -30 -15 -30 -31zM216 331h4c12 0 18 5 18 14s-6 13 -17 13h-5v-27zM235 152l-6 7c-7 -5 -15 -7 -24 -7c-21 0 -43 19 -43 43s20 44 44 44c23 0 43 -20 43 -45c0 -11 -4 -20 -12 -28
l14 -14h-16zM76 154l-24 34h-2v-34h-13v83h15c21 0 32 -9 32 -24c0 -11 -7 -21 -18 -24l25 -35h-15zM116 225v-20h33v-12h-33v-27h34v-12h-46v83h46v-12h-34zM277 237v-50c0 -15 6 -23 19 -23s18 7 18 23v50h13v-54c0 -17 -14 -31 -31 -31c-19 0 -31 14 -31 31v54h12z
M359 154h-13v83h13v-83zM418 154l-24 34h-2v-34h-13v83h15c21 0 32 -9 32 -24c0 -5 -2 -11 -5 -16c-4 -4 -9 -7 -14 -8l26 -35h-15zM458 225v-20h32v-12h-32v-27h33v-12h-46v83h46v-12h-33zM508 237h17c31 0 47 -17 47 -42s-16 -41 -47 -41h-17v83zM216 187l12 -12
c5 5 8 12 8 20c0 17 -12 32 -31 32c-17 0 -30 -15 -30 -32s14 -31 30 -31c5 0 10 1 15 4l-20 19h16zM50 199h4c12 0 18 4 18 13s-6 13 -18 13h-4v-26zM392 199h4c11 0 17 4 17 13s-6 13 -17 13h-4v-26zM520 166h6c9 0 13 0 14 1l10 6c7 7 10 14 10 22c0 17 -11 30 -34 30h-6
v-59z" />
    <glyph glyph-name="one" unicode="1" 
d="M235 458v12h-27v20h29v12h-42v-83h13v39h27zM304 427c6 5 9 12 9 21v54h-13v-50c0 -15 -6 -23 -18 -23s-18 8 -18 23v50h-13v-54c0 -17 12 -31 31 -31c9 0 16 3 22 10zM345 430v72h-12v-83h37v11h-25zM394 430v72h-12v-83h37v11h-25zM539 281v88h-13v-57l-60 63v-89h12
v59zM295 359c4 0 6 0 7 -1l5 -7l10 6c-5 9 -13 14 -22 14c-13 0 -25 -10 -25 -22c0 -9 6 -16 17 -21l8 -3l5 -3l4 -3l2 -4l1 -5c0 -5 -6 -13 -14 -13c-9 0 -14 5 -14 15l-13 -3c3 -16 12 -24 27 -24c16 0 26 10 26 26c0 12 -6 20 -19 25l-8 3c-7 3 -10 6 -10 10s5 10 13 10z
M437 358c-8 9 -18 13 -30 13c-25 0 -44 -19 -44 -43c0 -27 18 -43 43 -43c24 0 44 19 44 43c0 12 -4 22 -13 30zM94 312l-23 57h-14l37 -89l37 89h-14zM154 298v28h32v12h-32v20h33v11h-46v-83h46v12h-33zM245 330c3 3 5 8 5 15c0 17 -9 24 -32 24h-14v-83h12v34h2l24 -34
h16l-26 36c5 1 10 4 13 8zM334 369v-83h13v83h-13zM428 306c-6 -6 -13 -9 -22 -9c-16 0 -30 12 -30 31c0 16 14 31 30 31c17 0 31 -14 31 -31c0 -9 -3 -16 -9 -22zM216 358h5c11 0 17 -4 17 -13s-6 -14 -18 -14h-4v27zM249 194c0 25 -20 45 -43 45c-24 0 -44 -20 -44 -44
s22 -43 43 -43c9 0 17 2 24 7l6 -7h16l-14 14c8 8 12 17 12 28zM79 197c3 5 5 11 5 16c0 15 -11 24 -32 24h-15v-83h13v34h2l24 -34h15l-25 35c5 1 10 4 13 8zM150 154v12h-34v27h33v12h-33v20h34v12h-46v-83h46zM314 237v-50c0 -16 -5 -23 -18 -23s-19 8 -19 23v50h-12v-54
c0 -17 12 -31 31 -31c17 0 31 14 31 31v54h-13zM359 154v83h-13v-83h13zM421 197c3 5 5 11 5 16c0 15 -11 24 -32 24h-15v-83h13v34h2l24 -34h15l-26 35c5 1 10 4 14 8zM491 154v12h-33v27h32v12h-32v20h33v12h-46v-83h46zM559 226c-7 7 -19 11 -34 11h-17v-83h17
c31 0 47 16 47 41c0 13 -4 23 -13 31zM200 187l20 -19c-5 -3 -10 -4 -15 -4c-16 0 -30 14 -30 31s13 32 30 32c19 0 31 -15 31 -32c0 -8 -3 -15 -8 -20l-12 12h-16zM50 225h4c12 0 18 -4 18 -13s-6 -13 -18 -13h-4v26zM392 225h4c11 0 17 -4 17 -13s-6 -13 -17 -13h-4v26z
M550 173l-10 -6c-1 -1 -5 -1 -14 -1h-6v59h6c23 0 34 -13 34 -30c0 -8 -3 -15 -10 -22z" />
    <glyph glyph-name="two" unicode="2" 
d="M208 490v-20h27v-12h-27v-39h-13v83h42v-12h-29zM264 502v-50c0 -15 6 -23 18 -23s18 8 18 23v50h13v-54c0 -17 -14 -31 -31 -31c-19 0 -31 14 -31 31v54h13zM345 430h25v-11h-37v83h12v-72zM394 430h25v-11h-37v83h12v-72zM466 375l60 -63v57h13v-88l-61 64v-59h-12v89z
M307 351l-5 7c-1 1 -3 1 -7 1c-8 0 -13 -6 -13 -10s3 -7 10 -10l8 -3c13 -5 19 -13 19 -25c0 -16 -10 -26 -26 -26c-15 0 -24 8 -27 24l13 3c0 -10 5 -15 14 -15c8 0 14 8 14 13l-1 5l-2 4l-4 3l-5 3l-8 3c-11 5 -17 12 -17 21c0 12 12 22 25 22c9 0 17 -5 22 -14zM363 328
c0 24 19 43 44 43c24 0 43 -19 43 -43s-20 -43 -44 -43c-25 0 -43 16 -43 43zM94 312l23 57h14l-37 -89l-37 89h14zM154 358v-20h32v-12h-32v-28h33v-12h-46v83h46v-11h-33zM242 286l-24 34h-2v-34h-12v83h14c23 0 32 -7 32 -24c0 -12 -6 -20 -18 -23l26 -36h-16zM347 286
h-13v83h13v-83zM376 328c0 -19 14 -31 30 -31c17 0 31 14 31 31s-14 31 -31 31c-16 0 -30 -15 -30 -31zM216 331h4c12 0 18 5 18 14s-6 13 -17 13h-5v-27zM235 152l-6 7c-7 -5 -15 -7 -24 -7c-21 0 -43 19 -43 43s20 44 44 44c23 0 43 -20 43 -45c0 -11 -4 -20 -12 -28
l14 -14h-16zM76 154l-24 34h-2v-34h-13v83h15c21 0 32 -9 32 -24c0 -11 -7 -21 -18 -24l25 -35h-15zM116 225v-20h33v-12h-33v-27h34v-12h-46v83h46v-12h-34zM277 237v-50c0 -15 6 -23 19 -23s18 7 18 23v50h13v-54c0 -17 -14 -31 -31 -31c-19 0 -31 14 -31 31v54h12z
M359 154h-13v83h13v-83zM418 154l-24 34h-2v-34h-13v83h15c21 0 32 -9 32 -24c0 -5 -2 -11 -5 -16c-4 -4 -9 -7 -14 -8l26 -35h-15zM458 225v-20h32v-12h-32v-27h33v-12h-46v83h46v-12h-33zM508 237h17c31 0 47 -17 47 -42s-16 -41 -47 -41h-17v83zM216 187l12 -12
c5 5 8 12 8 20c0 17 -12 32 -31 32c-17 0 -30 -15 -30 -32s14 -31 30 -31c5 0 10 1 15 4l-20 19h16zM50 199h4c12 0 18 4 18 13s-6 13 -18 13h-4v-26zM392 199h4c11 0 17 4 17 13s-6 13 -17 13h-4v-26zM520 166h6c9 0 13 0 14 1l10 6c7 7 10 14 10 22c0 17 -11 30 -34 30h-6
v-59z" />
    <glyph glyph-name="three" unicode="3" 
d="M208 490v-20h27v-12h-27v-39h-13v83h42v-12h-29zM264 502v-50c0 -15 6 -23 18 -23s18 8 18 23v50h13v-54c0 -17 -14 -31 -31 -31c-19 0 -31 14 -31 31v54h13zM345 430h25v-11h-37v83h12v-72zM394 430h25v-11h-37v83h12v-72zM466 375l60 -63v57h13v-88l-61 64v-59h-12v89z
M307 351l-5 7c-1 1 -3 1 -7 1c-8 0 -13 -6 -13 -10s3 -7 10 -10l8 -3c13 -5 19 -13 19 -25c0 -16 -10 -26 -26 -26c-15 0 -24 8 -27 24l13 3c0 -10 5 -15 14 -15c8 0 14 8 14 13l-1 5l-2 4l-4 3l-5 3l-8 3c-11 5 -17 12 -17 21c0 12 12 22 25 22c9 0 17 -5 22 -14zM363 328
c0 24 19 43 44 43c24 0 43 -19 43 -43s-20 -43 -44 -43c-25 0 -43 16 -43 43zM94 312l23 57h14l-37 -89l-37 89h14zM154 358v-20h32v-12h-32v-28h33v-12h-46v83h46v-11h-33zM242 286l-24 34h-2v-34h-12v83h14c23 0 32 -7 32 -24c0 -12 -6 -20 -18 -23l26 -36h-16zM347 286
h-13v83h13v-83zM376 328c0 -19 14 -31 30 -31c17 0 31 14 31 31s-14 31 -31 31c-16 0 -30 -15 -30 -31zM216 331h4c12 0 18 5 18 14s-6 13 -17 13h-5v-27zM235 152l-6 7c-7 -5 -15 -7 -24 -7c-21 0 -43 19 -43 43s20 44 44 44c23 0 43 -20 43 -45c0 -11 -4 -20 -12 -28
l14 -14h-16zM76 154l-24 34h-2v-34h-13v83h15c21 0 32 -9 32 -24c0 -11 -7 -21 -18 -24l25 -35h-15zM116 225v-20h33v-12h-33v-27h34v-12h-46v83h46v-12h-34zM277 237v-50c0 -15 6 -23 19 -23s18 7 18 23v50h13v-54c0 -17 -14 -31 -31 -31c-19 0 -31 14 -31 31v54h12z
M359 154h-13v83h13v-83zM418 154l-24 34h-2v-34h-13v83h15c21 0 32 -9 32 -24c0 -5 -2 -11 -5 -16c-4 -4 -9 -7 -14 -8l26 -35h-15zM458 225v-20h32v-12h-32v-27h33v-12h-46v83h46v-12h-33zM508 237h17c31 0 47 -17 47 -42s-16 -41 -47 -41h-17v83zM216 187l12 -12
c5 5 8 12 8 20c0 17 -12 32 -31 32c-17 0 -30 -15 -30 -32s14 -31 30 -31c5 0 10 1 15 4l-20 19h16zM50 199h4c12 0 18 4 18 13s-6 13 -18 13h-4v-26zM392 199h4c11 0 17 4 17 13s-6 13 -17 13h-4v-26zM520 166h6c9 0 13 0 14 1l10 6c7 7 10 14 10 22c0 17 -11 30 -34 30h-6
v-59z" />
    <glyph glyph-name="four" unicode="4" 
d="M208 490v-20h27v-12h-27v-39h-13v83h42v-12h-29zM264 502v-50c0 -15 6 -23 18 -23s18 8 18 23v50h13v-54c0 -17 -14 -31 -31 -31c-19 0 -31 14 -31 31v54h13zM345 430h25v-11h-37v83h12v-72zM394 430h25v-11h-37v83h12v-72zM466 375l60 -63v57h13v-88l-61 64v-59h-12v89z
M307 351l-5 7c-1 1 -3 1 -7 1c-8 0 -13 -6 -13 -10s3 -7 10 -10l8 -3c13 -5 19 -13 19 -25c0 -16 -10 -26 -26 -26c-15 0 -24 8 -27 24l13 3c0 -10 5 -15 14 -15c8 0 14 8 14 13l-1 5l-2 4l-4 3l-5 3l-8 3c-11 5 -17 12 -17 21c0 12 12 22 25 22c9 0 17 -5 22 -14zM363 328
c0 24 19 43 44 43c24 0 43 -19 43 -43s-20 -43 -44 -43c-25 0 -43 16 -43 43zM94 312l23 57h14l-37 -89l-37 89h14zM154 358v-20h32v-12h-32v-28h33v-12h-46v83h46v-11h-33zM242 286l-24 34h-2v-34h-12v83h14c23 0 32 -7 32 -24c0 -12 -6 -20 -18 -23l26 -36h-16zM347 286
h-13v83h13v-83zM376 328c0 -19 14 -31 30 -31c17 0 31 14 31 31s-14 31 -31 31c-16 0 -30 -15 -30 -31zM216 331h4c12 0 18 5 18 14s-6 13 -17 13h-5v-27zM235 152l-6 7c-7 -5 -15 -7 -24 -7c-21 0 -43 19 -43 43s20 44 44 44c23 0 43 -20 43 -45c0 -11 -4 -20 -12 -28
l14 -14h-16zM76 154l-24 34h-2v-34h-13v83h15c21 0 32 -9 32 -24c0 -11 -7 -21 -18 -24l25 -35h-15zM116 225v-20h33v-12h-33v-27h34v-12h-46v83h46v-12h-34zM277 237v-50c0 -15 6 -23 19 -23s18 7 18 23v50h13v-54c0 -17 -14 -31 -31 -31c-19 0 -31 14 -31 31v54h12z
M359 154h-13v83h13v-83zM418 154l-24 34h-2v-34h-13v83h15c21 0 32 -9 32 -24c0 -5 -2 -11 -5 -16c-4 -4 -9 -7 -14 -8l26 -35h-15zM458 225v-20h32v-12h-32v-27h33v-12h-46v83h46v-12h-33zM508 237h17c31 0 47 -17 47 -42s-16 -41 -47 -41h-17v83zM216 187l12 -12
c5 5 8 12 8 20c0 17 -12 32 -31 32c-17 0 -30 -15 -30 -32s14 -31 30 -31c5 0 10 1 15 4l-20 19h16zM50 199h4c12 0 18 4 18 13s-6 13 -18 13h-4v-26zM392 199h4c11 0 17 4 17 13s-6 13 -17 13h-4v-26zM520 166h6c9 0 13 0 14 1l10 6c7 7 10 14 10 22c0 17 -11 30 -34 30h-6
v-59z" />
    <glyph glyph-name="five" unicode="5" 
d="M208 490v-20h27v-12h-27v-39h-13v83h42v-12h-29zM264 502v-50c0 -15 6 -23 18 -23s18 8 18 23v50h13v-54c0 -17 -14 -31 -31 -31c-19 0 -31 14 -31 31v54h13zM345 430h25v-11h-37v83h12v-72zM394 430h25v-11h-37v83h12v-72zM466 375l60 -63v57h13v-88l-61 64v-59h-12v89z
M307 351l-5 7c-1 1 -3 1 -7 1c-8 0 -13 -6 -13 -10s3 -7 10 -10l8 -3c13 -5 19 -13 19 -25c0 -16 -10 -26 -26 -26c-15 0 -24 8 -27 24l13 3c0 -10 5 -15 14 -15c8 0 14 8 14 13l-1 5l-2 4l-4 3l-5 3l-8 3c-11 5 -17 12 -17 21c0 12 12 22 25 22c9 0 17 -5 22 -14zM363 328
c0 24 19 43 44 43c24 0 43 -19 43 -43s-20 -43 -44 -43c-25 0 -43 16 -43 43zM94 312l23 57h14l-37 -89l-37 89h14zM154 358v-20h32v-12h-32v-28h33v-12h-46v83h46v-11h-33zM242 286l-24 34h-2v-34h-12v83h14c23 0 32 -7 32 -24c0 -12 -6 -20 -18 -23l26 -36h-16zM347 286
h-13v83h13v-83zM376 328c0 -19 14 -31 30 -31c17 0 31 14 31 31s-14 31 -31 31c-16 0 -30 -15 -30 -31zM216 331h4c12 0 18 5 18 14s-6 13 -17 13h-5v-27zM235 152l-6 7c-7 -5 -15 -7 -24 -7c-21 0 -43 19 -43 43s20 44 44 44c23 0 43 -20 43 -45c0 -11 -4 -20 -12 -28
l14 -14h-16zM76 154l-24 34h-2v-34h-13v83h15c21 0 32 -9 32 -24c0 -11 -7 -21 -18 -24l25 -35h-15zM116 225v-20h33v-12h-33v-27h34v-12h-46v83h46v-12h-34zM277 237v-50c0 -15 6 -23 19 -23s18 7 18 23v50h13v-54c0 -17 -14 -31 -31 -31c-19 0 -31 14 -31 31v54h12z
M359 154h-13v83h13v-83zM418 154l-24 34h-2v-34h-13v83h15c21 0 32 -9 32 -24c0 -5 -2 -11 -5 -16c-4 -4 -9 -7 -14 -8l26 -35h-15zM458 225v-20h32v-12h-32v-27h33v-12h-46v83h46v-12h-33zM508 237h17c31 0 47 -17 47 -42s-16 -41 -47 -41h-17v83zM216 187l12 -12
c5 5 8 12 8 20c0 17 -12 32 -31 32c-17 0 -30 -15 -30 -32s14 -31 30 -31c5 0 10 1 15 4l-20 19h16zM50 199h4c12 0 18 4 18 13s-6 13 -18 13h-4v-26zM392 199h4c11 0 17 4 17 13s-6 13 -17 13h-4v-26zM520 166h6c9 0 13 0 14 1l10 6c7 7 10 14 10 22c0 17 -11 30 -34 30h-6
v-59z" />
    <glyph glyph-name="six" unicode="6" 
d="M208 490v-20h27v-12h-27v-39h-13v83h42v-12h-29zM264 502v-50c0 -15 6 -23 18 -23s18 8 18 23v50h13v-54c0 -17 -14 -31 -31 -31c-19 0 -31 14 -31 31v54h13zM345 430h25v-11h-37v83h12v-72zM394 430h25v-11h-37v83h12v-72zM466 375l60 -63v57h13v-88l-61 64v-59h-12v89z
M307 351l-5 7c-1 1 -3 1 -7 1c-8 0 -13 -6 -13 -10s3 -7 10 -10l8 -3c13 -5 19 -13 19 -25c0 -16 -10 -26 -26 -26c-15 0 -24 8 -27 24l13 3c0 -10 5 -15 14 -15c8 0 14 8 14 13l-1 5l-2 4l-4 3l-5 3l-8 3c-11 5 -17 12 -17 21c0 12 12 22 25 22c9 0 17 -5 22 -14zM363 328
c0 24 19 43 44 43c24 0 43 -19 43 -43s-20 -43 -44 -43c-25 0 -43 16 -43 43zM94 312l23 57h14l-37 -89l-37 89h14zM154 358v-20h32v-12h-32v-28h33v-12h-46v83h46v-11h-33zM242 286l-24 34h-2v-34h-12v83h14c23 0 32 -7 32 -24c0 -12 -6 -20 -18 -23l26 -36h-16zM347 286
h-13v83h13v-83zM376 328c0 -19 14 -31 30 -31c17 0 31 14 31 31s-14 31 -31 31c-16 0 -30 -15 -30 -31zM216 331h4c12 0 18 5 18 14s-6 13 -17 13h-5v-27zM235 152l-6 7c-7 -5 -15 -7 -24 -7c-21 0 -43 19 -43 43s20 44 44 44c23 0 43 -20 43 -45c0 -11 -4 -20 -12 -28
l14 -14h-16zM76 154l-24 34h-2v-34h-13v83h15c21 0 32 -9 32 -24c0 -11 -7 -21 -18 -24l25 -35h-15zM116 225v-20h33v-12h-33v-27h34v-12h-46v83h46v-12h-34zM277 237v-50c0 -15 6 -23 19 -23s18 7 18 23v50h13v-54c0 -17 -14 -31 -31 -31c-19 0 -31 14 -31 31v54h12z
M359 154h-13v83h13v-83zM418 154l-24 34h-2v-34h-13v83h15c21 0 32 -9 32 -24c0 -5 -2 -11 -5 -16c-4 -4 -9 -7 -14 -8l26 -35h-15zM458 225v-20h32v-12h-32v-27h33v-12h-46v83h46v-12h-33zM508 237h17c31 0 47 -17 47 -42s-16 -41 -47 -41h-17v83zM216 187l12 -12
c5 5 8 12 8 20c0 17 -12 32 -31 32c-17 0 -30 -15 -30 -32s14 -31 30 -31c5 0 10 1 15 4l-20 19h16zM50 199h4c12 0 18 4 18 13s-6 13 -18 13h-4v-26zM392 199h4c11 0 17 4 17 13s-6 13 -17 13h-4v-26zM520 166h6c9 0 13 0 14 1l10 6c7 7 10 14 10 22c0 17 -11 30 -34 30h-6
v-59z" />
    <glyph glyph-name="seven" unicode="7" 
d="M208 490v-20h27v-12h-27v-39h-13v83h42v-12h-29zM264 502v-50c0 -15 6 -23 18 -23s18 8 18 23v50h13v-54c0 -17 -14 -31 -31 -31c-19 0 -31 14 -31 31v54h13zM345 430h25v-11h-37v83h12v-72zM394 430h25v-11h-37v83h12v-72zM466 375l60 -63v57h13v-88l-61 64v-59h-12v89z
M307 351l-5 7c-1 1 -3 1 -7 1c-8 0 -13 -6 -13 -10s3 -7 10 -10l8 -3c13 -5 19 -13 19 -25c0 -16 -10 -26 -26 -26c-15 0 -24 8 -27 24l13 3c0 -10 5 -15 14 -15c8 0 14 8 14 13l-1 5l-2 4l-4 3l-5 3l-8 3c-11 5 -17 12 -17 21c0 12 12 22 25 22c9 0 17 -5 22 -14zM363 328
c0 24 19 43 44 43c24 0 43 -19 43 -43s-20 -43 -44 -43c-25 0 -43 16 -43 43zM94 312l23 57h14l-37 -89l-37 89h14zM154 358v-20h32v-12h-32v-28h33v-12h-46v83h46v-11h-33zM242 286l-24 34h-2v-34h-12v83h14c23 0 32 -7 32 -24c0 -12 -6 -20 -18 -23l26 -36h-16zM347 286
h-13v83h13v-83zM376 328c0 -19 14 -31 30 -31c17 0 31 14 31 31s-14 31 -31 31c-16 0 -30 -15 -30 -31zM216 331h4c12 0 18 5 18 14s-6 13 -17 13h-5v-27zM235 152l-6 7c-7 -5 -15 -7 -24 -7c-21 0 -43 19 -43 43s20 44 44 44c23 0 43 -20 43 -45c0 -11 -4 -20 -12 -28
l14 -14h-16zM76 154l-24 34h-2v-34h-13v83h15c21 0 32 -9 32 -24c0 -11 -7 -21 -18 -24l25 -35h-15zM116 225v-20h33v-12h-33v-27h34v-12h-46v83h46v-12h-34zM277 237v-50c0 -15 6 -23 19 -23s18 7 18 23v50h13v-54c0 -17 -14 -31 -31 -31c-19 0 -31 14 -31 31v54h12z
M359 154h-13v83h13v-83zM418 154l-24 34h-2v-34h-13v83h15c21 0 32 -9 32 -24c0 -5 -2 -11 -5 -16c-4 -4 -9 -7 -14 -8l26 -35h-15zM458 225v-20h32v-12h-32v-27h33v-12h-46v83h46v-12h-33zM508 237h17c31 0 47 -17 47 -42s-16 -41 -47 -41h-17v83zM216 187l12 -12
c5 5 8 12 8 20c0 17 -12 32 -31 32c-17 0 -30 -15 -30 -32s14 -31 30 -31c5 0 10 1 15 4l-20 19h16zM50 199h4c12 0 18 4 18 13s-6 13 -18 13h-4v-26zM392 199h4c11 0 17 4 17 13s-6 13 -17 13h-4v-26zM520 166h6c9 0 13 0 14 1l10 6c7 7 10 14 10 22c0 17 -11 30 -34 30h-6
v-59z" />
    <glyph glyph-name="eight" unicode="8" 
d="M208 490v-20h27v-12h-27v-39h-13v83h42v-12h-29zM264 502v-50c0 -15 6 -23 18 -23s18 8 18 23v50h13v-54c0 -17 -14 -31 -31 -31c-19 0 -31 14 -31 31v54h13zM345 430h25v-11h-37v83h12v-72zM394 430h25v-11h-37v83h12v-72zM466 375l60 -63v57h13v-88l-61 64v-59h-12v89z
M307 351l-5 7c-1 1 -3 1 -7 1c-8 0 -13 -6 -13 -10s3 -7 10 -10l8 -3c13 -5 19 -13 19 -25c0 -16 -10 -26 -26 -26c-15 0 -24 8 -27 24l13 3c0 -10 5 -15 14 -15c8 0 14 8 14 13l-1 5l-2 4l-4 3l-5 3l-8 3c-11 5 -17 12 -17 21c0 12 12 22 25 22c9 0 17 -5 22 -14zM363 328
c0 24 19 43 44 43c24 0 43 -19 43 -43s-20 -43 -44 -43c-25 0 -43 16 -43 43zM94 312l23 57h14l-37 -89l-37 89h14zM154 358v-20h32v-12h-32v-28h33v-12h-46v83h46v-11h-33zM242 286l-24 34h-2v-34h-12v83h14c23 0 32 -7 32 -24c0 -12 -6 -20 -18 -23l26 -36h-16zM347 286
h-13v83h13v-83zM376 328c0 -19 14 -31 30 -31c17 0 31 14 31 31s-14 31 -31 31c-16 0 -30 -15 -30 -31zM216 331h4c12 0 18 5 18 14s-6 13 -17 13h-5v-27zM235 152l-6 7c-7 -5 -15 -7 -24 -7c-21 0 -43 19 -43 43s20 44 44 44c23 0 43 -20 43 -45c0 -11 -4 -20 -12 -28
l14 -14h-16zM76 154l-24 34h-2v-34h-13v83h15c21 0 32 -9 32 -24c0 -11 -7 -21 -18 -24l25 -35h-15zM116 225v-20h33v-12h-33v-27h34v-12h-46v83h46v-12h-34zM277 237v-50c0 -15 6 -23 19 -23s18 7 18 23v50h13v-54c0 -17 -14 -31 -31 -31c-19 0 -31 14 -31 31v54h12z
M359 154h-13v83h13v-83zM418 154l-24 34h-2v-34h-13v83h15c21 0 32 -9 32 -24c0 -5 -2 -11 -5 -16c-4 -4 -9 -7 -14 -8l26 -35h-15zM458 225v-20h32v-12h-32v-27h33v-12h-46v83h46v-12h-33zM508 237h17c31 0 47 -17 47 -42s-16 -41 -47 -41h-17v83zM216 187l12 -12
c5 5 8 12 8 20c0 17 -12 32 -31 32c-17 0 -30 -15 -30 -32s14 -31 30 -31c5 0 10 1 15 4l-20 19h16zM50 199h4c12 0 18 4 18 13s-6 13 -18 13h-4v-26zM392 199h4c11 0 17 4 17 13s-6 13 -17 13h-4v-26zM520 166h6c9 0 13 0 14 1l10 6c7 7 10 14 10 22c0 17 -11 30 -34 30h-6
v-59z" />
    <glyph glyph-name="nine" unicode="9" 
d="M208 490v-20h27v-12h-27v-39h-13v83h42v-12h-29zM264 502v-50c0 -15 6 -23 18 -23s18 8 18 23v50h13v-54c0 -17 -14 -31 -31 -31c-19 0 -31 14 -31 31v54h13zM345 430h25v-11h-37v83h12v-72zM394 430h25v-11h-37v83h12v-72zM466 375l60 -63v57h13v-88l-61 64v-59h-12v89z
M307 351l-5 7c-1 1 -3 1 -7 1c-8 0 -13 -6 -13 -10s3 -7 10 -10l8 -3c13 -5 19 -13 19 -25c0 -16 -10 -26 -26 -26c-15 0 -24 8 -27 24l13 3c0 -10 5 -15 14 -15c8 0 14 8 14 13l-1 5l-2 4l-4 3l-5 3l-8 3c-11 5 -17 12 -17 21c0 12 12 22 25 22c9 0 17 -5 22 -14zM363 328
c0 24 19 43 44 43c24 0 43 -19 43 -43s-20 -43 -44 -43c-25 0 -43 16 -43 43zM94 312l23 57h14l-37 -89l-37 89h14zM154 358v-20h32v-12h-32v-28h33v-12h-46v83h46v-11h-33zM242 286l-24 34h-2v-34h-12v83h14c23 0 32 -7 32 -24c0 -12 -6 -20 -18 -23l26 -36h-16zM347 286
h-13v83h13v-83zM376 328c0 -19 14 -31 30 -31c17 0 31 14 31 31s-14 31 -31 31c-16 0 -30 -15 -30 -31zM216 331h4c12 0 18 5 18 14s-6 13 -17 13h-5v-27zM235 152l-6 7c-7 -5 -15 -7 -24 -7c-21 0 -43 19 -43 43s20 44 44 44c23 0 43 -20 43 -45c0 -11 -4 -20 -12 -28
l14 -14h-16zM76 154l-24 34h-2v-34h-13v83h15c21 0 32 -9 32 -24c0 -11 -7 -21 -18 -24l25 -35h-15zM116 225v-20h33v-12h-33v-27h34v-12h-46v83h46v-12h-34zM277 237v-50c0 -15 6 -23 19 -23s18 7 18 23v50h13v-54c0 -17 -14 -31 -31 -31c-19 0 -31 14 -31 31v54h12z
M359 154h-13v83h13v-83zM418 154l-24 34h-2v-34h-13v83h15c21 0 32 -9 32 -24c0 -5 -2 -11 -5 -16c-4 -4 -9 -7 -14 -8l26 -35h-15zM458 225v-20h32v-12h-32v-27h33v-12h-46v83h46v-12h-33zM508 237h17c31 0 47 -17 47 -42s-16 -41 -47 -41h-17v83zM216 187l12 -12
c5 5 8 12 8 20c0 17 -12 32 -31 32c-17 0 -30 -15 -30 -32s14 -31 30 -31c5 0 10 1 15 4l-20 19h16zM50 199h4c12 0 18 4 18 13s-6 13 -18 13h-4v-26zM392 199h4c11 0 17 4 17 13s-6 13 -17 13h-4v-26zM520 166h6c9 0 13 0 14 1l10 6c7 7 10 14 10 22c0 17 -11 30 -34 30h-6
v-59z" />
    <glyph glyph-name="fraction" unicode="&#x2044;" 
 />
    <glyph glyph-name="asterisk" unicode="*" 
 />
    <glyph glyph-name="backslash" unicode="\" 
d="M489 0h-105l-281 702h105zM410 31h33l-259 635h-33l258 -636z" />
    <glyph glyph-name="periodcentered" unicode="&#xb7;" 
 />
    <glyph glyph-name="bullet" unicode="&#x2022;" 
 />
    <glyph glyph-name="colon" unicode=":" 
d="M316 370c36 0 64 30 64 66c0 35 -28 64 -64 64c-37 0 -66 -29 -66 -64c0 -36 29 -66 66 -66zM316 471c19 0 36 -16 36 -35c0 -20 -16 -36 -36 -36s-35 15 -35 36c0 19 15 35 35 35zM299 436c0 -11 8 -18 17 -18s17 9 17 18c0 8 -8 17 -17 17s-17 -9 -17 -17zM316 0
c36 0 64 30 64 66c0 35 -28 64 -64 64c-37 0 -66 -29 -66 -64c0 -36 29 -66 66 -66zM316 101c19 0 36 -16 36 -35c0 -20 -16 -36 -36 -36s-35 15 -35 36c0 19 15 35 35 35zM299 66c0 -11 8 -18 17 -18s17 9 17 18c0 8 -8 17 -17 17s-17 -9 -17 -17z" />
    <glyph glyph-name="comma" unicode="," horiz-adv-x="260" 
d="M243 49c0 -47 -34 -103 -102 -167l-9 -9l-70 48l13 12c24 23 41 41 52 55c9 -6 19 -10 29 -12c-6 -9 -22 -26 -48 -52l22 -12c23 23 40 43 52 60l18 28l-27 -5h-6c-35 3 -60 31 -60 66c0 36 30 66 66 66c12 0 22 -2 31 -7c26 -14 39 -38 39 -71zM191 29c12 5 19 19 19 32
c0 12 -9 26 -17 30l-1 1c-5 3 -12 5 -19 5c-20 0 -36 -16 -36 -36c0 -19 14 -35 33 -36h5c6 0 11 1 16 4zM173 78c9 0 17 -8 17 -17s-6 -17 -17 -17c-9 0 -17 8 -17 17s8 17 17 17z" />
    <glyph glyph-name="ellipsis" unicode="&#x2026;" 
 />
    <glyph glyph-name="exclam" unicode="!" horiz-adv-x="390" 
d="M262 183h-105v519h105v-519zM226 214v452h-33v-452h33zM210 130c36 0 64 -29 64 -64c0 -36 -28 -66 -64 -66c-37 0 -66 30 -66 66c0 35 29 64 66 64zM210 30c20 0 36 16 36 36c0 19 -17 35 -36 35c-20 0 -35 -16 -35 -35c0 -21 15 -36 35 -36zM210 83c9 0 17 -9 17 -17
c0 -9 -8 -18 -17 -18s-17 7 -17 18c0 8 8 17 17 17z" />
    <glyph glyph-name="exclamdown" unicode="&#xa1;" 
 />
    <glyph glyph-name="numbersign" unicode="#" 
 />
    <glyph glyph-name="period" unicode="." horiz-adv-x="390" 
d="M219 -2c36 0 64 30 64 66c0 35 -28 64 -64 64c-37 0 -66 -29 -66 -64c0 -36 29 -66 66 -66zM219 99c19 0 36 -16 36 -35c0 -20 -16 -36 -36 -36s-35 15 -35 36c0 19 15 35 35 35zM202 64c0 -11 8 -18 17 -18s17 9 17 18c0 8 -8 17 -17 17s-17 -9 -17 -17z" />
    <glyph glyph-name="question" unicode="?" 
d="M460 670c37 -29 56 -73 56 -131c0 -104 -58 -159 -174 -159h-64v-200h-107v307h98c37 0 64 1 81 3c36 3 51 17 51 49c0 13 -3 25 -9 34c-12 19 -26 21 -66 21h-157v106h199c34 0 65 -10 92 -30zM244 415h98c93 0 138 40 138 124c0 79 -43 125 -112 125h-163v-34h90l11 1
h33c13 0 33 -4 58 -11c32 -16 43 -37 43 -81c0 -43 -13 -65 -45 -77c-24 -9 -35 -10 -92 -10h-98v-240h39v203zM230 130c36 0 64 -29 64 -64c0 -36 -28 -66 -64 -66c-37 0 -66 30 -66 66c0 35 29 64 66 64zM230 30c20 0 36 16 36 36c0 19 -17 35 -36 35
c-20 0 -35 -16 -35 -35c0 -21 15 -36 35 -36zM230 83c9 0 17 -9 17 -17c0 -9 -8 -18 -17 -18s-17 7 -17 18c0 8 8 17 17 17z" />
    <glyph glyph-name="questiondown" unicode="&#xbf;" 
 />
    <glyph glyph-name="quotedbl" unicode="&#x22;" 
d="M299 722c0 -47 -34 -103 -102 -167l-9 -9l-70 48l13 12c24 23 41 41 52 55c9 -6 19 -10 29 -12c-6 -9 -22 -26 -48 -52l22 -12c23 23 40 43 52 60l18 28l-27 -5h-6c-35 3 -60 31 -60 66c0 36 30 66 66 66c12 0 22 -2 31 -7c26 -14 39 -38 39 -71zM480 722
c0 -47 -34 -103 -102 -167l-9 -9l-70 48l13 12c24 23 41 41 52 55c9 -6 19 -10 29 -12c-6 -9 -22 -26 -48 -52l22 -12c23 23 40 43 52 60l18 28l-27 -5h-6c-35 3 -60 31 -60 66c0 36 30 66 66 66c12 0 22 -2 31 -7c26 -14 39 -38 39 -71zM247 702c12 5 19 19 19 32
c0 12 -9 26 -17 30l-1 1c-5 3 -12 5 -19 5c-20 0 -36 -16 -36 -36c0 -19 14 -35 33 -36h5c6 0 11 1 16 4zM428 702c12 5 19 19 19 32c0 12 -9 26 -17 30l-1 1c-5 3 -12 5 -19 5c-20 0 -36 -16 -36 -36c0 -19 14 -35 33 -36h5c6 0 11 1 16 4zM229 751c9 0 17 -8 17 -17
s-6 -17 -17 -17c-9 0 -17 8 -17 17s8 17 17 17zM410 751c9 0 17 -8 17 -17s-6 -17 -17 -17c-9 0 -17 8 -17 17s8 17 17 17z" />
    <glyph glyph-name="quotesingle" unicode="'" horiz-adv-x="230" 
d="M186 722c0 -47 -34 -103 -102 -167l-9 -9l-70 48l13 12c24 23 41 41 52 55c9 -6 19 -10 29 -12c-6 -9 -22 -26 -48 -52l22 -12c23 23 40 43 52 60l18 28l-27 -5h-6c-35 3 -60 31 -60 66c0 36 30 66 66 66c12 0 22 -2 31 -7c26 -14 39 -38 39 -71zM134 702
c12 5 19 19 19 32c0 12 -9 26 -17 30l-1 1c-5 3 -12 5 -19 5c-20 0 -36 -16 -36 -36c0 -19 14 -35 33 -36h5c6 0 11 1 16 4zM116 751c9 0 17 -8 17 -17s-6 -17 -17 -17c-9 0 -17 8 -17 17s8 17 17 17z" />
    <glyph glyph-name="semicolon" unicode=";" 
d="M286 375c36 0 64 30 64 66c0 35 -28 64 -64 64c-37 0 -66 -29 -66 -64c0 -36 29 -66 66 -66zM286 476c19 0 36 -16 36 -35c0 -20 -16 -36 -36 -36s-35 15 -35 36c0 19 15 35 35 35zM269 441c0 -11 8 -18 17 -18s17 9 17 18c0 8 -8 17 -17 17s-17 -9 -17 -17zM347 54
c0 -47 -34 -103 -102 -167l-9 -9l-70 48l13 12c24 23 41 41 52 55c9 -6 19 -10 29 -12c-6 -9 -22 -26 -48 -52l22 -12c23 23 40 43 52 60l18 28l-27 -5h-6c-35 3 -60 31 -60 66c0 36 30 66 66 66c12 0 22 -2 31 -7c26 -14 39 -38 39 -71zM295 34c12 5 19 19 19 32
c0 12 -9 26 -17 30l-1 1c-5 3 -12 5 -19 5c-20 0 -36 -16 -36 -36c0 -19 14 -35 33 -36h5c6 0 11 1 16 4zM277 83c9 0 17 -8 17 -17s-6 -17 -17 -17c-9 0 -17 8 -17 17s8 17 17 17z" />
    <glyph glyph-name="slash" unicode="/" 
d="M489 702l-281 -702h-105l281 702h105zM441 666h-33l-259 -635h33l1 -1z" />
    <glyph glyph-name="underscore" unicode="_" 
 />
    <glyph glyph-name="braceleft" unicode="{" 
 />
    <glyph glyph-name="braceright" unicode="}" 
 />
    <glyph glyph-name="bracketleft" unicode="[" 
d="M162 738v-809h231v108h-125l-1 593h126v108h-231zM231 668v-666l126 -1v-34h-159v735h159v-34h-126z" />
    <glyph glyph-name="bracketright" unicode="]" 
d="M408 -71h-231v108h125l1 593h-126v108h231v-809zM372 702h-159v-34h126v-666l-126 -1v-34h159v735z" />
    <glyph glyph-name="parenleft" unicode="(" 
d="M393 630h-126l1 -593h125v-108h-231v809h231v-108zM357 702h-159v-735h159v34l-126 1v666h126v34z" />
    <glyph glyph-name="parenright" unicode=")" 
d="M408 -71h-231v108h125l1 593h-126v108h231v-809zM372 702h-159v-34h126v-666l-126 -1v-34h159v735z" />
    <glyph glyph-name="emdash" unicode="&#x2014;" 
 />
    <glyph glyph-name="endash" unicode="&#x2013;" 
d="M124 293h348v-105h-348v105zM160 257v-33h281v33h-281z" />
    <glyph glyph-name="hyphen" unicode="-" 
d="M124 293h348v-105h-348v105zM160 257v-33h281v33h-281z" />
    <glyph glyph-name="space" unicode=" " horiz-adv-x="400" 
 />
    <glyph glyph-name="approxequal" unicode="&#x2248;" 
 />
    <glyph glyph-name="asciitilde" unicode="~" 
 />
    <glyph glyph-name="divide" unicode="&#xf7;" 
 />
    <glyph glyph-name="emptyset" unicode="&#x2205;" 
 />
    <glyph glyph-name="equal" unicode="=" 
 />
    <glyph glyph-name="greater" unicode="&#x3e;" 
 />
    <glyph glyph-name="greaterequal" unicode="&#x2265;" 
 />
    <glyph glyph-name="infinity" unicode="&#x221e;" 
 />
    <glyph glyph-name="integral" unicode="&#x222b;" 
 />
    <glyph glyph-name="less" unicode="&#x3c;" 
 />
    <glyph glyph-name="lessequal" unicode="&#x2264;" 
 />
    <glyph glyph-name="logicalnot" unicode="&#xac;" 
 />
    <glyph glyph-name="minus" unicode="&#x2212;" 
 />
    <glyph glyph-name="multiply" unicode="&#xd7;" 
 />
    <glyph glyph-name="notequal" unicode="&#x2260;" 
 />
    <glyph glyph-name="partialdiff" unicode="&#x2202;" 
 />
    <glyph glyph-name="percent" unicode="%" 
 />
    <glyph glyph-name="perthousand" unicode="&#x2030;" 
 />
    <glyph glyph-name="plus" unicode="+" 
 />
    <glyph glyph-name="plusminus" unicode="&#xb1;" 
 />
    <glyph glyph-name="product" unicode="&#x220f;" 
 />
    <glyph glyph-name="radical" unicode="&#x221a;" 
 />
    <glyph glyph-name="summation" unicode="&#x2211;" 
 />
    <glyph glyph-name="asciicircum" unicode="^" 
 />
    <glyph glyph-name="acute" unicode="&#xb4;" 
 />
    <glyph glyph-name="breve" unicode="&#x2d8;" 
 />
    <glyph glyph-name="caron" unicode="&#x2c7;" 
 />
    <glyph glyph-name="cedilla" unicode="&#xb8;" 
 />
    <glyph glyph-name="circumflex" unicode="&#x2c6;" 
 />
    <glyph glyph-name="dieresis" unicode="&#xa8;" 
 />
    <glyph glyph-name="dotaccent" unicode="&#x2d9;" 
 />
    <glyph glyph-name="grave" unicode="`" 
 />
    <glyph glyph-name="hungarumlaut" unicode="&#x2dd;" 
 />
    <glyph glyph-name="macron" unicode="&#xaf;" 
 />
    <glyph glyph-name="ogonek" unicode="&#x2db;" 
 />
    <glyph glyph-name="ring" unicode="&#x2da;" 
 />
    <glyph glyph-name="tilde" unicode="&#x2dc;" 
 />
    </font>
</defs>
</svg>
