<svg id="Layer_1" data-name="Layer 1" xmlns="http://www.w3.org/2000/svg" viewBox="0 0 303.19 144.45"><defs><style>.cls-1{fill:#0a0a0a;}.cls-2{fill:#008cff;}</style></defs><path class="cls-1" d="M247.57,307V231.12l15.56-1.89,2.41,11.89q7.63-12.24,22.14-12.24a34.82,34.82,0,0,1,4.95.28l-.28,15.49a40,40,0,0,0-5.87-.42q-10.26,0-15.32,5.45t-5.06,15.14V307Z" transform="translate(-83.39 -197.18)"/><polygon class="cls-1" points="239.17 4.88 239.17 20.01 220.56 20.01 220.56 6.17 239.17 4.88"/><rect class="cls-1" x="220.56" y="32.05" width="18.54" height="77.75"/><path class="cls-1" d="M346.32,307V241.54H334V231.15l12.31-1.92v-4.32a48.58,48.58,0,0,1,1.31-12.09,22,22,0,0,1,4.28-8.6,17.67,17.67,0,0,1,8-5.31,37.91,37.91,0,0,1,12.28-1.73,80.74,80.74,0,0,1,14.43,1.34L385,212.32a72.92,72.92,0,0,0-9.13-.78q-5.94,0-8.46,2.87t-2.51,9.51v5.31h15.9l1.18,12.31H364.86V307Z" transform="translate(-83.39 -197.18)"/><rect class="cls-2" y="78.46" width="9.59" height="9.59"/><polygon class="cls-2" points="19.65 88.04 29.22 88.04 29.29 78.46 19.65 78.46 19.65 88.04"/><rect class="cls-2" x="34.04" y="39.23" width="31.95" height="9.59"/><rect class="cls-2" x="56.4" y="19.65" width="9.59" height="9.57"/><rect class="cls-2" x="95.63" y="33.97" width="9.59" height="31.95"/><rect class="cls-2" x="39.23" y="78.46" width="9.59" height="31.95"/><rect class="cls-2" x="56.4" width="9.59" height="9.59"/><rect class="cls-2" x="115.28" y="56.34" width="9.59" height="9.59"/><rect class="cls-2" x="87.3" y="76.17" width="45.72" height="9.27"/><polygon class="cls-2" points="78.52 105.22 110.47 105.22 110.54 95.63 78.52 95.63 78.52 105.22"/><rect class="cls-2" x="134.86" y="56.4" width="9.59" height="9.59"/><rect class="cls-2" x="78.46" y="115.23" width="9.59" height="9.57"/><rect class="cls-2" x="11.43" y="59" width="45.72" height="9.27"/><rect class="cls-2" x="59" y="87.3" width="9.27" height="45.72"/><rect class="cls-2" x="78.46" y="134.86" width="9.59" height="9.59"/><rect class="cls-2" x="76.17" y="11.43" width="9.27" height="45.79"/></svg>