<svg id="Layer_1" data-name="Layer 1" xmlns="http://www.w3.org/2000/svg" viewBox="0 0 215.28 121.25"><defs><style>.cls-1{fill:#006e3c;}.cls-2{fill:#00b43c;}</style></defs><path d="M129.55,126.6V80.28l9.51-1.18,1.47,7.26a15,15,0,0,1,13.52-7.47,22.38,22.38,0,0,1,3,.17l-.18,9.47a23.11,23.11,0,0,0-3.58-.26q-6.27,0-9.36,3.32t-3.09,9.25V126.6Z" transform="translate(-34.09 -25.6)"/><path d="M178.77,127.46q-10.52,0-16.81-3.59l1.16-8.51a34.71,34.71,0,0,0,7.26,2.79,30.16,30.16,0,0,0,8,1.23,10.37,10.37,0,0,0,5.85-1.41,4.71,4.71,0,0,0,2.14-4.12,4.54,4.54,0,0,0-2-3.89,37,37,0,0,0-7.5-3.55l-2.46-.9Q167.92,103,165,99.82t-2.89-8.49q0-6.48,4.69-9.94t13.07-3.45a35.32,35.32,0,0,1,15.94,3.41L193,89.17A30.7,30.7,0,0,0,180.1,86a10.47,10.47,0,0,0-5.33,1.14,3.78,3.78,0,0,0-1.93,3.48,3.9,3.9,0,0,0,1.86,3.44A40.82,40.82,0,0,0,182,97.3c.12,0,.49.15,1.13.38s1.12.42,1.47.57q6.52,2.37,9.59,5.68a12.19,12.19,0,0,1,3.07,8.62q0,7.13-4.84,11T178.77,127.46Z" transform="translate(-34.09 -25.6)"/><polygon points="194.66 73.94 214.02 53.49 200.54 53.49 181.22 73.39 181.22 38.01 169.9 40.12 169.91 100.99 181.22 100.99 181.23 100.99 181.23 88.13 187.47 81.54 201.58 100.99 215.28 100.99 194.66 73.94"/><path class="cls-1" d="M65,72.3V28.21S50.71,35.32,50.71,50.43,65,72.3,65,72.3Z" transform="translate(-34.09 -25.6)"/><path class="cls-2" d="M65,28.21s14.26,7.11,14.26,22.22S65,72.3,65,72.3Z" transform="translate(-34.09 -25.6)"/><path class="cls-1" d="M98.27,93l19.6-11.15s-6.77-4.54-13.48-.72S98.27,93,98.27,93Z" transform="translate(-34.09 -25.6)"/><path class="cls-2" d="M117.87,81.89s.45,8.14-6.27,12S98.27,93,98.27,93Z" transform="translate(-34.09 -25.6)"/><path d="M118.81,80.12c-.35-.19-8.61-4.55-15.59-.51-5.6,3.23-6.72,9.72-6.94,12.41L93.7,93.51a7.11,7.11,0,0,0-10,0L71.92,86.64a7,7,0,0,0,.21-1.72A7.17,7.17,0,0,0,67,78V73.83c3.46-2.21,14.41-10.26,14.41-23.08,0-14.84-14.72-24.12-15.34-24.5l-1-.65-1,.65c-.63.38-15.35,9.66-15.35,24.5,0,12.82,10.95,20.87,14.41,23.08V78a7.17,7.17,0,0,0-5.18,6.88A7,7,0,0,0,58,86.64L46.2,93.47a7.15,7.15,0,1,0-6.94,12v14.2a7.15,7.15,0,1,0,7.27,11.68L58,138a6.91,6.91,0,0,0-.21,1.71,7.16,7.16,0,0,0,14.31,0,6.91,6.91,0,0,0-.21-1.71l11.5-6.63a7.15,7.15,0,1,0,7.27-11.68v-14.2a7.18,7.18,0,0,0,5.17-6.87,7,7,0,0,0-.2-1.67l2.58-1.49a19,19,0,0,0,7.86,1.88,12.62,12.62,0,0,0,6.4-1.66c7-4,7.34-13.37,7.35-13.76l0-1.22Zm-28.12,21a3.22,3.22,0,0,1-2,.69,3.32,3.32,0,0,1-2-.68,3.16,3.16,0,0,1-1.18-2,2.45,2.45,0,0,1,0-.46,2.73,2.73,0,0,1,0-.41,3.19,3.19,0,0,1,2-2.57,3.29,3.29,0,0,1,1.17-.22,3.24,3.24,0,0,1,1.25.25,3.2,3.2,0,0,1,2,3,3,3,0,0,1,0,.52A3.21,3.21,0,0,1,90.69,101.12Zm1.21,25.44a3.2,3.2,0,0,1-3.2,3.2,3.13,3.13,0,0,1-1.66-.48,3.18,3.18,0,0,1-1.53-2.72.28.28,0,0,1,0-.09h0a2.93,2.93,0,0,1,.18-1,3.3,3.3,0,0,1,1-1.43,3.09,3.09,0,0,1,1.43-.63,2.41,2.41,0,0,1,.54,0,3.19,3.19,0,0,1,3.2,3.19Zm-5.17-6.87a7.1,7.1,0,0,0-2.61,1.4l-12.13-7h0a7.33,7.33,0,0,0,.14-1.41,7,7,0,0,0-.29-2l11.94-6.88a7.26,7.26,0,0,0,3,1.7ZM65,142.9a3.19,3.19,0,0,1-3.15-2.7,2.63,2.63,0,0,1,0-.49,3.2,3.2,0,0,1,2-3,3.15,3.15,0,0,1,2.41,0,3.2,3.2,0,0,1,2,3,2.63,2.63,0,0,1,0,.49A3.19,3.19,0,0,1,65,142.9Zm-7-28.79-12.13,7a7.14,7.14,0,0,0-2.62-1.4v-14.2a7.21,7.21,0,0,0,3-1.73l11.92,6.89A6.93,6.93,0,0,0,58,114.1ZM44.44,126.56a3.18,3.18,0,0,1-1.53,2.72,3.14,3.14,0,0,1-1.67.48,3.2,3.2,0,0,1,0-6.39,2.59,2.59,0,0,1,.56,0,3.16,3.16,0,0,1,1.42.63,3.3,3.3,0,0,1,1,1.43,3,3,0,0,1,.18,1A.28.28,0,0,1,44.44,126.56ZM38.05,98.62a3.19,3.19,0,0,1,3.19-3.2,3.3,3.3,0,0,1,1.18.22,3.18,3.18,0,0,1,2,2.51,2.49,2.49,0,0,1,0,.47,2.45,2.45,0,0,1,0,.46,3.16,3.16,0,0,1-1.18,2,3.3,3.3,0,0,1-.8.45,3.06,3.06,0,0,1-1.18.23,3.19,3.19,0,0,1-3.19-3.19ZM63,82.4a3.19,3.19,0,0,1,5.13,2,2.42,2.42,0,0,1,0,.47A3.18,3.18,0,0,1,67,87.42a2.85,2.85,0,0,1-.8.45A3.06,3.06,0,0,1,65,88.1a3.14,3.14,0,0,1-1.18-.23,2.94,2.94,0,0,1-.79-.45,3.18,3.18,0,0,1-1.22-2.5,2.42,2.42,0,0,1,0-.47A3.19,3.19,0,0,1,63,82.4Zm5.16,30.4A3.12,3.12,0,0,1,67,115.18a3.64,3.64,0,0,1-.46.3,3.19,3.19,0,0,1-3,0,3.41,3.41,0,0,1-.49-.31,3.17,3.17,0,0,1-1.21-2.42.28.28,0,0,1,0-.09,2.87,2.87,0,0,1,.12-.83,3.06,3.06,0,0,1,1.1-1.68,3.28,3.28,0,0,1,1.18-.59,3.49,3.49,0,0,1,.79-.1,2.82,2.82,0,0,1,.83.12,3.1,3.1,0,0,1,1.15.57,3.18,3.18,0,0,1,1.22,2.51.49.49,0,0,1,0,.12Zm13.6-15.91a7,7,0,0,0-.21,1.73,6.93,6.93,0,0,0,.23,1.77l-12.06,6.94A6.79,6.79,0,0,0,67,105.8v-14a7,7,0,0,0,3-1.72ZM52.55,50.75c0-10.52,9.27-18.13,12.42-20.42C68.14,32.61,77.4,40.2,77.4,50.75,77.4,59.55,70.89,65.92,67,69V52.35a2,2,0,1,0-4,0V69C59.05,65.93,52.55,59.57,52.55,50.75ZM60,90.06a7,7,0,0,0,3,1.72v14a7,7,0,0,0-2.75,1.51l-12.06-7a7.19,7.19,0,0,0,0-3.45ZM48.28,127.81a6.39,6.39,0,0,0,.12-1.25,7.16,7.16,0,0,0-.35-2.18l11.76-6.78A7.09,7.09,0,0,0,63,119.54v13.3a7.2,7.2,0,0,0-3,1.74Zm21.66,6.77a7.2,7.2,0,0,0-3-1.74v-13.3a7.12,7.12,0,0,0,3.2-1.94l11.75,6.77a7.27,7.27,0,0,0-.35,2.19,6.39,6.39,0,0,0,.12,1.25Zm40.58-42.33a10.25,10.25,0,0,1-7.83.65l4-2.29a2,2,0,1,0-2-3.42l-3.93,2.27A10.16,10.16,0,0,1,105.2,83c3.77-2.18,8.43-.8,10.57,0C115.44,85.35,114.33,90.06,110.52,92.25Z" transform="translate(-34.09 -25.6)"/></svg>